<svg width="289" height="64" viewBox="0 0 289 64" fill="none" xmlns="http://www.w3.org/2000/svg">
<path d="M0 32C0 14.3269 14.3269 0 32 0H64V32C64 49.6731 49.6731 64 32 64H0V32Z" fill="#2770F1"/>
<rect x="54" y="26" width="12" height="16" rx="6" transform="rotate(90 54 26)" fill="#1EBB92"/>
<path fill-rule="evenodd" clip-rule="evenodd" d="M25.8125 16.1875C25.8125 12.7701 28.5826 10 32 10C35.4174 10 38.1875 12.7701 38.1875 16.1875V25.8125H38.2305C36.5177 27.3242 35.4375 29.5359 35.4375 32C35.4375 34.4641 36.5177 36.6758 38.2305 38.1875H38.1875V47.8125C38.1875 51.2299 35.4174 54 32 54C28.5826 54 25.8125 51.2299 25.8125 47.8125V38.1875H16.1875C12.7701 38.1875 10 35.4174 10 32C10 28.5826 12.7701 25.8125 16.1875 25.8125H25.8125V16.1875Z" fill="white"/>
<path d="M79.7275 33.1757C78.6135 33.1757 77.7169 32.8502 77.0377 32.1991C76.3856 31.5209 76.0596 30.6121 76.0596 29.4728V7.70291C76.0596 6.59068 76.3856 5.69547 77.0377 5.01728C77.7169 4.33909 78.6135 4 79.7275 4C80.8414 4 81.7244 4.33909 82.3765 5.01728C83.0557 5.66834 83.3953 6.56355 83.3953 7.70291V15.3936H85.5553L93.7876 5.4242C94.5483 4.50186 95.4449 4.04069 96.4774 4.04069C97.3196 4.04069 98.0532 4.35266 98.6781 4.97659C99.3301 5.5734 99.6562 6.27871 99.6562 7.09254C99.6562 7.90637 99.3573 8.65238 98.7596 9.33056L92.3205 16.8992C93.3257 17.3603 94.1001 17.8079 94.6434 18.242C95.1868 18.676 95.6759 19.2186 96.1106 19.8696C96.5453 20.4936 97.1974 21.5651 98.0668 23.0842L100.594 27.601C100.974 28.252 101.164 28.9302 101.164 29.6355C101.164 30.6121 100.811 31.4395 100.104 32.1177C99.3981 32.7959 98.583 33.135 97.6592 33.135C96.3551 33.135 95.3227 32.4704 94.5619 31.1411L90.8126 24.305C90.2148 23.1927 89.5899 22.4196 88.9379 21.9856C88.2858 21.5515 87.2805 21.3345 85.9221 21.3345H83.3953V29.4728C83.3953 30.585 83.0557 31.4802 82.3765 32.1584C81.7244 32.8366 80.8414 33.1757 79.7275 33.1757Z" fill="#1B315F"/>
<path d="M117.235 13.9287C117.235 19.1101 116.596 23.0978 115.319 25.8919C114.042 28.6861 112.181 30.7749 109.736 32.1584C108.866 32.6738 108.038 32.9315 107.25 32.9315C106.353 32.9315 105.62 32.6467 105.049 32.077C104.479 31.4802 104.193 30.7613 104.193 29.9204C104.193 29.2422 104.397 28.5911 104.805 27.9672C105.212 27.3161 105.823 26.7465 106.638 26.2582C108.894 24.739 110.021 21.0632 110.021 15.2308V7.70291C110.021 6.59068 110.32 5.73616 110.918 5.13936C111.515 4.54255 112.371 4.24415 113.485 4.24415H128.157C129.271 4.24415 130.126 4.54255 130.724 5.13936C131.349 5.73616 131.661 6.59068 131.661 7.70291V29.4728C131.661 30.585 131.322 31.4802 130.643 32.1584C129.963 32.8366 129.067 33.1757 127.953 33.1757C126.839 33.1757 125.942 32.8502 125.263 32.1991C124.611 31.5209 124.285 30.6121 124.285 29.4728V10.1037H117.235V13.9287Z" fill="#1B315F"/>
<path d="M154.805 6.3601C155.43 5.46489 156.055 4.85452 156.68 4.52899C157.332 4.17633 158.31 4 159.614 4C160.728 4 161.584 4.2984 162.181 4.89521C162.779 5.46489 163.078 6.30584 163.078 7.41807V29.4728C163.078 30.585 162.738 31.4802 162.059 32.1584C161.407 32.8366 160.524 33.1757 159.41 33.1757C158.296 33.1757 157.4 32.8502 156.72 32.1991C156.068 31.5209 155.742 30.6121 155.742 29.4728V14.9053L145.758 29.9204C145.106 30.8427 144.508 31.548 143.964 32.0363C143.448 32.4975 142.905 32.7959 142.334 32.9315C141.791 33.0943 141.112 33.1757 140.297 33.1757C139.183 33.1757 138.327 32.8909 137.729 32.3212C137.131 31.7244 136.832 30.8698 136.832 29.7576V7.70291C136.832 6.59068 137.158 5.69547 137.811 5.01728C138.49 4.33909 139.386 4 140.5 4C141.614 4 142.497 4.33909 143.149 5.01728C143.829 5.66834 144.168 6.56355 144.168 7.70291V22.2297L154.805 6.3601Z" fill="#1B315F"/>
<path d="M191.054 4.04069C192.168 4.04069 193.051 4.37978 193.703 5.05797C194.382 5.70904 194.722 6.59068 194.722 7.70291V29.4728C194.722 30.585 194.382 31.4802 193.703 32.1584C193.051 32.8366 192.168 33.1757 191.054 33.1757C189.94 33.1757 189.044 32.8502 188.364 32.1991C187.712 31.5209 187.386 30.6121 187.386 29.4728V21.3345H175.649V29.4728C175.649 30.585 175.309 31.4802 174.63 32.1584C173.978 32.8366 173.095 33.1757 171.981 33.1757C170.867 33.1757 169.971 32.8502 169.291 32.1991C168.639 31.5209 168.313 30.6121 168.313 29.4728V7.70291C168.313 6.59068 168.639 5.70904 169.291 5.05797C169.971 4.37978 170.867 4.04069 171.981 4.04069C173.095 4.04069 173.978 4.37978 174.63 5.05797C175.309 5.70904 175.649 6.59068 175.649 7.70291V15.3936H187.386V7.70291C187.386 6.59068 187.712 5.70904 188.364 5.05797C189.044 4.37978 189.94 4.04069 191.054 4.04069Z" fill="#1B315F"/>
<path d="M217.926 6.3601C218.551 5.46489 219.176 4.85452 219.801 4.52899C220.453 4.17633 221.431 4 222.735 4C223.849 4 224.705 4.2984 225.302 4.89521C225.9 5.46489 226.199 6.30584 226.199 7.41807V29.4728C226.199 30.585 225.859 31.4802 225.18 32.1584C224.528 32.8366 223.645 33.1757 222.531 33.1757C221.417 33.1757 220.521 32.8502 219.841 32.1991C219.189 31.5209 218.863 30.6121 218.863 29.4728V14.9053L208.879 29.9204C208.226 30.8427 207.629 31.548 207.085 32.0363C206.569 32.4975 206.026 32.7959 205.455 32.9315C204.912 33.0943 204.233 33.1757 203.418 33.1757C202.304 33.1757 201.448 32.8909 200.85 32.3212C200.252 31.7244 199.953 30.8698 199.953 29.7576V7.70291C199.953 6.59068 200.279 5.69547 200.932 5.01728C201.611 4.33909 202.507 4 203.621 4C204.735 4 205.618 4.33909 206.27 5.01728C206.95 5.66834 207.289 6.56355 207.289 7.70291V22.2297L217.926 6.3601Z" fill="#1B315F"/>
<path d="M235.102 33.1757C233.988 33.1757 233.092 32.8502 232.412 32.1991C231.76 31.5209 231.434 30.6121 231.434 29.4728V7.70291C231.434 6.59068 231.76 5.69547 232.412 5.01728C233.092 4.33909 233.988 4 235.102 4C236.216 4 237.099 4.33909 237.751 5.01728C238.43 5.66834 238.77 6.56355 238.77 7.70291V15.3936H240.93L249.162 5.4242C249.923 4.50186 250.82 4.04069 251.852 4.04069C252.694 4.04069 253.428 4.35266 254.053 4.97659C254.705 5.5734 255.031 6.27871 255.031 7.09254C255.031 7.90637 254.732 8.65238 254.134 9.33056L247.695 16.8992C248.7 17.3603 249.475 17.8079 250.018 18.242C250.562 18.676 251.051 19.2186 251.485 19.8696C251.92 20.4936 252.572 21.5651 253.441 23.0842L255.968 27.601C256.349 28.252 256.539 28.9302 256.539 29.6355C256.539 30.6121 256.186 31.4395 255.479 32.1177C254.773 32.7959 253.958 33.135 253.034 33.135C251.73 33.135 250.697 32.4704 249.937 31.1411L246.187 24.305C245.59 23.1927 244.965 22.4196 244.313 21.9856C243.661 21.5515 242.655 21.3345 241.297 21.3345H238.77V29.4728C238.77 30.585 238.43 31.4802 237.751 32.1584C237.099 32.8366 236.216 33.1757 235.102 33.1757Z" fill="#1B315F"/>
<path d="M288.633 28.3334C288.878 28.8488 289 29.3507 289 29.839C289 30.7342 288.633 31.4938 287.9 32.1177C287.193 32.7417 286.378 33.0536 285.454 33.0536C284.829 33.0536 284.259 32.8909 283.743 32.5653C283.227 32.2398 282.819 31.7515 282.52 31.1004L280.686 26.9906H267.482L265.607 31.1004C265.308 31.7515 264.887 32.2398 264.344 32.5653C263.828 32.8909 263.257 33.0536 262.632 33.0536C261.708 33.0536 260.866 32.7417 260.105 32.1177C259.372 31.4938 259.005 30.7342 259.005 29.839C259.005 29.3507 259.127 28.8488 259.372 28.3334L270.131 6.27871C270.484 5.54627 271 4.99016 271.68 4.61037C272.386 4.20346 273.16 4 274.003 4C274.818 4 275.578 4.20346 276.285 4.61037C276.991 4.99016 277.521 5.54627 277.874 6.27871L288.633 28.3334ZM270.009 21.3752H278.159L274.084 12.301L270.009 21.3752Z" fill="#1B315F"/>
<path d="M76.2838 59.939C75.8898 59.939 75.5773 59.8237 75.3464 59.5931C75.1155 59.3489 75 59.0234 75 58.6165V46.755C75 46.3752 75.1223 46.07 75.3668 45.8394C75.6113 45.5953 75.9238 45.4732 76.3041 45.4732H85.9221C86.3024 45.4732 86.6081 45.5953 86.839 45.8394C87.0836 46.07 87.2058 46.3752 87.2058 46.755V58.6368C87.2058 59.0302 87.0836 59.3489 86.839 59.5931C86.6081 59.8237 86.3024 59.939 85.9221 59.939C85.5281 59.939 85.2157 59.8237 84.9847 59.5931C84.7538 59.3489 84.6383 59.0302 84.6383 58.6368V47.5688H77.5879V58.6368C77.5879 59.0302 77.4656 59.3489 77.2211 59.5931C76.9902 59.8237 76.6777 59.939 76.2838 59.939Z" fill="#1B315F"/>
<path d="M103.038 49.3185C103.038 51.3395 102.902 53.0214 102.631 54.3643C102.373 55.6935 101.972 56.7718 101.429 57.5992C100.899 58.413 100.213 59.0777 99.3704 59.5931C99.0987 59.7559 98.827 59.8372 98.5553 59.8372C98.2429 59.8372 97.978 59.7287 97.7606 59.5117C97.5569 59.2947 97.455 59.037 97.455 58.7386C97.455 58.508 97.5229 58.2842 97.6588 58.0672C97.7946 57.8501 97.9984 57.6603 98.2701 57.4975C99.0308 57.0906 99.5946 56.2971 99.9614 55.117C100.328 53.9234 100.512 52.133 100.512 49.7458V46.7143C100.512 46.3209 100.62 46.0157 100.838 45.7987C101.055 45.5817 101.361 45.4732 101.755 45.4732H109.396C109.79 45.4732 110.089 45.5817 110.293 45.7987C110.51 46.0157 110.619 46.3209 110.619 46.7143V58.6368C110.619 59.0302 110.496 59.3489 110.252 59.5931C110.021 59.8237 109.715 59.939 109.335 59.939C108.941 59.939 108.628 59.8237 108.397 59.5931C108.167 59.3489 108.051 59.0302 108.051 58.6368V47.5688H103.038V49.3185Z" fill="#1B315F"/>
<path d="M133.787 60C131.845 60 130.289 59.4303 129.121 58.291C127.966 57.1516 127.307 55.585 127.144 53.5911H124.475V58.6368C124.475 59.0302 124.353 59.3489 124.108 59.5931C123.877 59.8237 123.565 59.939 123.171 59.939C122.777 59.939 122.464 59.8237 122.233 59.5931C122.002 59.3489 121.887 59.0302 121.887 58.6368V46.6532C121.887 46.2599 122.002 45.9479 122.233 45.7173C122.478 45.4732 122.79 45.3511 123.171 45.3511C123.565 45.3511 123.877 45.4732 124.108 45.7173C124.353 45.9479 124.475 46.2599 124.475 46.6532V51.4752H127.165C127.368 49.5355 128.048 48.0232 129.202 46.9381C130.357 45.8394 131.885 45.2901 133.787 45.2901C135.173 45.2901 136.368 45.5885 137.374 46.1853C138.379 46.7821 139.146 47.6298 139.676 48.7285C140.206 49.8272 140.471 51.1293 140.471 52.6349C140.471 54.1404 140.206 55.4494 139.676 56.5616C139.146 57.6602 138.379 58.508 137.374 59.1048C136.368 59.7016 135.173 60 133.787 60ZM133.787 57.9044C135.091 57.9044 136.097 57.4568 136.803 56.5616C137.509 55.6528 137.863 54.3439 137.863 52.6349C137.863 50.9258 137.509 49.6237 136.803 48.7285C136.11 47.8333 135.105 47.3857 133.787 47.3857C132.469 47.3857 131.457 47.8333 130.751 48.7285C130.058 49.6237 129.712 50.9258 129.712 52.6349C129.712 54.3439 130.058 55.6528 130.751 56.5616C131.457 57.4568 132.469 57.9044 133.787 57.9044Z" fill="#1B315F"/>
<path d="M157.689 60C156.304 60 155.088 59.7016 154.042 59.1048C153.009 58.508 152.215 57.6535 151.658 56.5412C151.101 55.429 150.822 54.1269 150.822 52.6349C150.822 51.1429 151.101 49.8475 151.658 48.7488C152.215 47.6366 153.009 46.7821 154.042 46.1853C155.088 45.5885 156.304 45.2901 157.689 45.2901C158.586 45.2901 159.428 45.4257 160.216 45.697C161.004 45.9547 161.704 46.3345 162.315 46.8364C162.491 46.972 162.614 47.1144 162.682 47.2636C162.75 47.4128 162.784 47.5959 162.784 47.8129C162.784 48.1114 162.702 48.3623 162.539 48.5657C162.376 48.7692 162.179 48.8709 161.948 48.8709C161.676 48.8709 161.398 48.776 161.113 48.5861C160.528 48.152 159.985 47.8536 159.482 47.6909C158.98 47.5145 158.423 47.4264 157.812 47.4264C156.399 47.4264 155.326 47.8672 154.592 48.7488C153.872 49.6305 153.512 50.9258 153.512 52.6349C153.512 54.3575 153.872 55.6596 154.592 56.5412C155.326 57.4229 156.399 57.8637 157.812 57.8637C158.396 57.8637 158.932 57.7755 159.421 57.5992C159.924 57.4229 160.488 57.1245 161.113 56.704C161.248 56.6226 161.384 56.5548 161.52 56.5005C161.656 56.4463 161.799 56.4192 161.948 56.4192C162.179 56.4192 162.376 56.5209 162.539 56.7243C162.702 56.9278 162.784 57.1787 162.784 57.4771C162.784 57.6806 162.75 57.8637 162.682 58.0265C162.614 58.1757 162.491 58.3181 162.315 58.4537C161.704 58.9556 161.004 59.3422 160.216 59.6134C159.428 59.8711 158.586 60 157.689 60Z" fill="#1B315F"/>
<rect x="178" y="48" width="8" height="8" rx="4" fill="#689BF5"/>
<rect x="194" y="48" width="8" height="8" rx="4" fill="#689BF5"/>
<rect x="210" y="48" width="8" height="8" rx="4" fill="#689BF5"/>
</svg>
