<svg width="179" height="179" viewBox="0 0 179 179" fill="none" xmlns="http://www.w3.org/2000/svg">
<g id="Union">
<path d="M77.2955 65.0909C77.2955 71.8313 71.8313 77.2955 65.0909 77.2955C58.3505 77.2955 52.8864 71.8313 52.8864 65.0909C52.8864 58.3505 58.3505 52.8864 65.0909 52.8864C71.8313 52.8864 77.2955 58.3505 77.2955 65.0909Z" fill="white" fill-opacity="0.05"/>
<path d="M113.909 77.2955C120.649 77.2955 126.114 71.8313 126.114 65.0909C126.114 58.3505 120.649 52.8864 113.909 52.8864C107.169 52.8864 101.705 58.3505 101.705 65.0909C101.705 71.8313 107.169 77.2955 113.909 77.2955Z" fill="white" fill-opacity="0.05"/>
<path fill-rule="evenodd" clip-rule="evenodd" d="M65.0909 179V130.182H32.5455C14.5711 130.182 0 115.611 0 97.6364V32.5455C0 14.5711 14.5711 0 32.5455 0H146.455C164.429 0 179 14.5711 179 32.5455V97.6364C179 115.611 164.429 130.182 146.455 130.182H113.909L65.0909 179ZM81.3636 113.909V139.714L107.169 113.909H146.455C155.442 113.909 162.727 106.624 162.727 97.6364V32.5455C162.727 23.5583 155.442 16.2727 146.455 16.2727H32.5455C23.5583 16.2727 16.2727 23.5583 16.2727 32.5455V97.6364C16.2727 106.624 23.5583 113.909 32.5455 113.909H81.3636Z" fill="white" fill-opacity="0.05"/>
</g>
</svg>
