<?xml version="1.0" encoding="UTF-8"?>
<svg xmlns="http://www.w3.org/2000/svg" width="32" height="32" viewBox="0 0 32 32" fill="none">
  <g clip-path="url(#clip0_455_6811)">
    <path d="M2.25 12.7847C2.25 11.9578 2.92281 11.2849 3.74981 11.2849H11.1564C11.2409 11.2849 11.3275 11.2926 11.4138 11.3077L11.4871 11.3205V10.4099C11.4871 10.3405 11.5148 10.2739 11.5639 10.2248C11.613 10.1756 11.6796 10.148 11.7491 10.1479H20.2509C20.3203 10.148 20.3869 10.1756 20.436 10.2248C20.4852 10.2739 20.5128 10.3405 20.5129 10.4099V11.3205L20.5861 11.3077C20.6711 11.2927 20.7572 11.2851 20.8434 11.2849H28.2501C29.0771 11.2849 29.7499 11.9578 29.7499 12.7847V23.4318C30.7499 21.3969 31.3124 19.108 31.3124 16.6875C31.3124 8.23063 24.4568 1.375 15.9999 1.375C7.54306 1.375 0.6875 8.23063 0.6875 16.6875C0.6875 19.108 1.25 21.3968 2.25 23.4318V12.7847Z" fill="#C8EFFE"></path>
    <path d="M21.8436 25.9731V27.9977C21.8436 28.9295 21.0855 29.6875 20.1538 29.6875H11.8466C10.9149 29.6875 10.1568 28.9295 10.1568 27.9977V25.9731H3.82471C6.62246 29.6363 11.035 32 16.0002 32C20.9655 32 25.378 29.6363 28.1757 25.9731H21.8436Z" fill="#01C0FA"></path>
    <path d="M21.6859 28.709C21.4168 29.2863 20.8313 29.6875 20.1536 29.6875H11.8464C11.1687 29.6875 10.5832 29.2863 10.3141 28.709C9.93881 28.7943 9.65625 29.1311 9.65625 29.5313C9.65625 29.9954 10.0359 30.375 10.5 30.375H21.5C21.9641 30.375 22.3438 29.9954 22.3438 29.5313C22.3438 29.1311 22.0612 28.7943 21.6859 28.709Z" fill="#08A9F1"></path>
    <path d="M21.312 10.2341H27.7813V11.2849H21.312V10.2341Z" fill="#FE0364"></path>
    <path d="M28.2502 11.2224H20.8436C20.7302 11.2224 20.6196 11.235 20.5129 11.2582V11.4483C20.5129 11.7717 20.2498 12.0349 19.9264 12.0349H19.5654V13.1982H20.1536C21.0853 13.1982 21.8434 13.9562 21.8434 14.888V26.0357H28.1275C28.7832 25.1869 29.348 24.2715 29.8125 23.3047V12.7847C29.8125 11.9255 29.1094 11.2224 28.2502 11.2224Z" fill="#FE5694"></path>
    <path d="M21.832 14.6943C21.8393 14.758 21.8435 14.8225 21.8435 14.888V22.7953H29.8126V14.6943H21.832Z" fill="#FE76A8"></path>
    <path d="M28.0475 10.2965H21.0459C20.9699 10.2965 20.8947 10.2815 20.8245 10.2525C20.7543 10.2234 20.6905 10.1808 20.6368 10.127C20.583 10.0733 20.5404 10.0095 20.5113 9.93932C20.4823 9.86912 20.4673 9.79387 20.4673 9.71789V7.69264C20.4673 7.53918 20.5282 7.392 20.6368 7.28349C20.7453 7.17498 20.8924 7.11401 21.0459 7.11401H28.0475C28.2009 7.11401 28.3481 7.17498 28.4566 7.28349C28.5651 7.392 28.6261 7.53918 28.6261 7.69264V9.71789C28.6262 10.0375 28.367 10.2965 28.0475 10.2965Z" fill="#FE5694"></path>
    <path d="M23.3896 8.38696C23.3896 9.02609 23.9078 9.54428 24.547 9.54428C25.1861 9.54428 25.7043 9.02615 25.7043 8.38696H23.3896Z" fill="#FE0364"></path>
    <path d="M28.0475 7.11401H21.0459C20.8924 7.11401 20.7453 7.17498 20.6368 7.28349C20.5282 7.392 20.4673 7.53918 20.4673 7.69264V8.50276H28.6262V7.69264C28.6262 7.61665 28.6112 7.5414 28.5821 7.47119C28.553 7.40099 28.5104 7.3372 28.4567 7.28347C28.4029 7.22974 28.3391 7.18712 28.2689 7.15804C28.1987 7.12897 28.1235 7.11401 28.0475 7.11401Z" fill="#FE76A8"></path>
    <path d="M27.1217 19.4392H21.9718C21.9281 19.4392 21.8854 19.4431 21.8433 19.4486V21.3971C21.8858 21.4031 21.9288 21.4063 21.9718 21.4066H27.1217C27.6627 21.4066 28.1054 20.9639 28.1054 20.4229C28.1054 19.8819 27.6627 19.4392 27.1217 19.4392Z" fill="white"></path>
    <path d="M22.5624 20.4229C22.5624 19.8818 23.0051 19.4392 23.5461 19.4392H21.9718C21.9281 19.4392 21.8854 19.4431 21.8433 19.4486V21.3971C21.8858 21.4031 21.9288 21.4063 21.9718 21.4066H23.5461C23.0051 21.4066 22.5624 20.964 22.5624 20.4229Z" fill="#F2FBFF"></path>
    <path d="M26.1297 17.6508H22.9641C22.6315 17.6508 22.3594 17.3787 22.3594 17.0461C22.3594 16.7135 22.6315 16.4414 22.9641 16.4414H26.1297C26.4623 16.4414 26.7344 16.7135 26.7344 17.0461C26.7344 17.3787 26.4623 17.6508 26.1297 17.6508Z" fill="white"></path>
    <path d="M23.375 17.0461C23.375 16.7135 23.6471 16.4414 23.9797 16.4414H22.9641C22.6315 16.4414 22.3594 16.7135 22.3594 17.0461C22.3594 17.3787 22.6315 17.6508 22.9641 17.6508H23.9797C23.6471 17.6508 23.375 17.3787 23.375 17.0461Z" fill="#F2FBFF"></path>
    <path d="M4.21875 10.2341H10.688V11.2849H4.21875V10.2341Z" fill="#07B27B"></path>
    <path d="M11.8464 13.1982H12.4346V12.0349H12.0736C11.7502 12.0349 11.4871 11.7717 11.4871 11.4483V11.2582C11.3785 11.2345 11.2676 11.2225 11.1564 11.2224H3.74981C2.89056 11.2224 2.1875 11.9255 2.1875 12.7848V14.7568H10.1622C10.2294 13.8862 10.9589 13.1982 11.8464 13.1982ZM10.1566 22.7328H2.1875V23.3048C2.65199 24.2716 3.21676 25.1869 3.8725 26.0357H10.1566V22.7328Z" fill="#0ED290"></path>
    <path d="M4.84369 14.7568V12.7847C4.84369 11.9254 5.54675 11.2224 6.406 11.2224H3.74981C2.89056 11.2224 2.1875 11.9255 2.1875 12.7848V14.7568L4.84369 14.7568ZM4.84369 24.4733V22.7328H2.1875V23.3048C2.65199 24.2716 3.21676 25.1869 3.8725 26.0357H6.40606C5.54675 26.0357 4.84369 25.3327 4.84369 24.4733Z" fill="#00C285"></path>
    <path d="M10.1566 14.888C10.1566 14.8225 10.1607 14.758 10.1681 14.6943H2.1875V22.7953H10.1566V14.888Z" fill="#9CF8D2"></path>
    <path d="M2.1875 14.6943H4.84369V22.7953H2.1875V14.6943Z" fill="#00F2A6"></path>
    <path d="M10.9537 10.2965H3.95216C3.87617 10.2965 3.80093 10.2815 3.73073 10.2525C3.66053 10.2234 3.59674 10.1808 3.54301 10.127C3.48928 10.0733 3.44666 10.0095 3.41758 9.93932C3.3885 9.86912 3.37354 9.79387 3.37354 9.71789V7.69264C3.37354 7.53918 3.4345 7.392 3.54301 7.28349C3.65152 7.17498 3.7987 7.11401 3.95216 7.11401H10.9537C11.1072 7.11401 11.2544 7.17498 11.3629 7.28349C11.4714 7.392 11.5323 7.53918 11.5323 7.69264V9.71789C11.5323 9.79387 11.5174 9.86912 11.4883 9.93932C11.4592 10.0095 11.4166 10.0733 11.3629 10.127C11.3091 10.1808 11.2454 10.2234 11.1752 10.2525C11.105 10.2815 11.0297 10.2965 10.9537 10.2965Z" fill="#0ED290"></path>
    <path d="M6.2959 8.38696C6.2959 9.02609 6.81402 9.54428 7.45321 9.54428C8.0924 9.54428 8.61052 9.02615 8.61052 8.38696H6.2959Z" fill="#07B27B"></path>
    <path d="M10.9537 7.11401H3.95216C3.7987 7.11401 3.65152 7.17498 3.54301 7.28349C3.4345 7.392 3.37354 7.53918 3.37354 7.69264V8.50276H11.5324V7.69264C11.5324 7.53918 11.4714 7.39201 11.3629 7.2835C11.2544 7.175 11.1072 7.11403 10.9537 7.11401Z" fill="#05E39C"></path>
    <path d="M10.1567 19.4486C10.1141 19.4427 10.0712 19.4395 10.0282 19.4392H4.87822C4.33722 19.4392 3.89453 19.8819 3.89453 20.4229C3.89453 20.9639 4.33722 21.4066 4.87822 21.4066H10.0282C10.0718 21.4066 10.1145 21.4027 10.1567 21.3971V19.4486Z" fill="white"></path>
    <path d="M5.50003 20.4229C5.50003 19.8818 5.94272 19.4392 6.48372 19.4392H4.87822C4.33722 19.4392 3.89453 19.8819 3.89453 20.4229C3.89453 20.9639 4.33722 21.4066 4.87822 21.4066H6.48372C5.94272 21.4066 5.50003 20.964 5.50003 20.4229Z" fill="#F2FBFF"></path>
    <path d="M9.03594 17.6508H5.87031C5.53775 17.6508 5.26562 17.3787 5.26562 17.0461C5.26562 16.7135 5.53775 16.4414 5.87031 16.4414H9.03594C9.3685 16.4414 9.64063 16.7135 9.64063 17.0461C9.64056 17.3787 9.3685 17.6508 9.03594 17.6508Z" fill="white"></path>
    <path d="M6.3125 17.0461C6.3125 16.7135 6.58463 16.4414 6.91719 16.4414H5.87031C5.53775 16.4414 5.26562 16.7135 5.26562 17.0461C5.26562 17.3787 5.53775 17.6508 5.87031 17.6508H6.91719C6.58463 17.6508 6.3125 17.3787 6.3125 17.0461Z" fill="#F2FBFF"></path>
    <path d="M13.1744 10.148H18.8255L19.6347 8.2887C20.4024 6.52457 19.8352 4.43857 18.2384 3.36539C17.6042 2.93914 16.8376 2.68701 15.9999 2.68701C15.1622 2.68701 14.3956 2.93914 13.7614 3.36539C12.1646 4.43864 11.5974 6.52457 12.3652 8.2887L13.1744 10.148Z" fill="#FFD15B"></path>
    <path d="M15.86 3.36515C16.2238 3.12041 16.6257 2.93754 17.0492 2.82396C16.707 2.73248 16.3542 2.68635 15.9999 2.68677C15.1622 2.68677 14.3956 2.9389 13.7614 3.36515C12.1646 4.4384 11.5974 6.52433 12.3652 8.28846L13.1744 10.1478H15.2729L14.4637 8.28846C13.696 6.52433 14.2632 4.4384 15.86 3.36515Z" fill="#FFC344"></path>
    <path d="M12.3721 12.0349H19.6279V13.1983H12.3721V12.0349Z" fill="#FFD15B"></path>
    <path d="M12.3721 12.0349H13.9374V13.1983H12.3721V12.0349Z" fill="#FFC344"></path>
    <path d="M20.1537 29.7501H11.8466C10.8828 29.7501 10.0942 28.9615 10.0942 27.9977V14.8881C10.0942 13.9243 10.8828 13.1357 11.8466 13.1357H20.1537C21.1175 13.1357 21.9061 13.9243 21.9061 14.8881V27.9978C21.906 28.9615 21.1174 29.7501 20.1537 29.7501Z" fill="#FFC344"></path>
    <path d="M12.7501 27.9977V14.8881C12.7501 13.9243 13.5386 13.1357 14.5024 13.1357H11.8466C10.8828 13.1357 10.0942 13.9242 10.0942 14.8881V27.9978C10.0942 28.9616 10.8827 29.7501 11.8466 29.7501H14.5024C13.5386 29.7501 12.7501 28.9616 12.7501 27.9977Z" fill="#F6AB31"></path>
    <path d="M18.6974 17.0298C18.8562 17.3967 18.9379 17.7923 18.9376 18.1921C18.9376 19.8118 17.6199 21.1296 16.0001 21.1296C14.3804 21.1296 13.0626 19.8118 13.0626 18.1921C13.0626 17.7794 13.1486 17.3865 13.3029 17.0298H10.0942V26.1157H21.906V17.0298H18.6974Z" fill="#FFE177"></path>
    <path d="M10.0942 17.0298H12.7501V26.1157H10.0942V17.0298Z" fill="#FFD15B"></path>
    <path d="M11.4248 11.4483C11.4248 11.8068 11.7154 12.0973 12.0738 12.0973H19.9267C20.2851 12.0973 20.5757 11.8068 20.5757 11.4483V10.4099C20.5757 10.3239 20.5415 10.2414 20.4806 10.1805C20.4198 10.1197 20.3372 10.0855 20.2512 10.0854H11.7493C11.6632 10.0855 11.5807 10.1197 11.5199 10.1805C11.459 10.2414 11.4248 10.3239 11.4248 10.4099V11.4483Z" fill="#FFE177"></path>
    <path d="M13.1142 11.4483V10.4099C13.1142 10.3239 13.1484 10.2413 13.2092 10.1805C13.2701 10.1196 13.3526 10.0854 13.4387 10.0854H11.7493C11.6632 10.0855 11.5807 10.1197 11.5199 10.1805C11.459 10.2414 11.4248 10.3239 11.4248 10.4099V11.4483C11.4248 11.8068 11.7154 12.0973 12.0738 12.0973H13.7632C13.4047 12.0973 13.1142 11.8067 13.1142 11.4483Z" fill="#FFD15B"></path>
    <path d="M14.7085 10.0854C14.7736 10.7413 15.3269 11.2536 15.9999 11.2536C16.673 11.2536 17.2262 10.7413 17.2914 10.0854H14.7085Z" fill="#FFC344"></path>
    <path d="M15.7921 10.0854H14.7085C14.7736 10.7413 15.3269 11.2536 15.9999 11.2536C16.1936 11.2536 16.3767 11.2101 16.5417 11.1341C16.1331 10.9458 15.8385 10.5526 15.7921 10.0854Z" fill="#F6AB31"></path>
    <path d="M18.8882 24.9376H13.1121C12.5053 24.9376 12.0088 24.4411 12.0088 23.8343C12.0088 23.2275 12.5053 22.731 13.1121 22.731H18.8882C19.495 22.731 19.9915 23.2275 19.9915 23.8343C19.9914 24.4411 19.495 24.9376 18.8882 24.9376Z" fill="white"></path>
    <path d="M14.1251 23.8343C14.1251 23.2275 14.6216 22.731 15.2284 22.731H13.1121C12.5053 22.731 12.0088 23.2275 12.0088 23.8343C12.0088 24.4411 12.5053 24.9376 13.1121 24.9376H15.2284C14.6216 24.9376 14.1251 24.4411 14.1251 23.8343Z" fill="#F2FBFF"></path>
    <path d="M17.5183 7.62197L15.792 5.89572C15.4301 5.53378 14.8434 5.53378 14.4814 5.89572C14.1195 6.25766 14.1195 6.84447 14.4814 7.20641L16.2077 8.93266C16.5696 9.2946 17.1564 9.2946 17.5183 8.93266C17.8802 8.57072 17.8802 7.98391 17.5183 7.62197Z" fill="#05E39C"></path>
    <path d="M16.8162 8.32419L15.09 6.59794C14.838 6.34594 14.7619 5.985 14.8609 5.66675C14.7177 5.71113 14.5874 5.78976 14.4814 5.89581C14.1195 6.25775 14.1195 6.84456 14.4814 7.2065L16.2077 8.93275C16.5696 9.29469 17.1564 9.29469 17.5183 8.93275C17.6244 8.82677 17.703 8.6965 17.7474 8.55325C17.4292 8.65219 17.0682 8.57619 16.8162 8.32419Z" fill="#0ED290"></path>
    <path d="M20.3083 3.70714L18.5821 5.43339C18.2201 5.79533 17.6334 5.79533 17.2715 5.43339C16.9095 5.07145 16.9095 4.48464 17.2715 4.1227L18.9977 2.39645C19.3596 2.03452 19.9464 2.03452 20.3083 2.39645C20.6703 2.75839 20.6703 3.3452 20.3083 3.70714Z" fill="#05E39C"></path>
    <path d="M19.6063 3.00502L17.88 4.73127C17.628 4.98327 17.552 5.3442 17.651 5.66245C17.5077 5.61807 17.3775 5.53945 17.2715 5.43339C16.9095 5.07145 16.9095 4.48464 17.2715 4.1227L18.9977 2.39645C19.3596 2.03452 19.9464 2.03452 20.3083 2.39645C20.4144 2.50243 20.4931 2.6327 20.5374 2.77595C20.2192 2.67702 19.8583 2.75302 19.6063 3.00502Z" fill="#0ED290"></path>
    <path d="M14.8308 1.9977L13.1045 0.271453C12.7426 -0.0904844 12.1559 -0.0904844 11.7939 0.271453C11.432 0.633391 11.432 1.2202 11.7939 1.58214L13.5202 3.30839C13.8821 3.67033 14.4689 3.67033 14.8308 3.30839C15.1927 2.94645 15.1927 2.35964 14.8308 1.9977Z" fill="#05E39C"></path>
    <path d="M14.1287 2.69967L12.4025 0.973424C12.1505 0.721424 12.0744 0.360486 12.1734 0.0422363C12.0302 0.0866208 11.8999 0.165243 11.7939 0.271299C11.432 0.633236 11.432 1.22005 11.7939 1.58199L13.5202 3.30824C13.8821 3.67017 14.4689 3.67017 14.8308 3.30824C14.9369 3.20226 15.0155 3.07199 15.0599 2.92874C14.7417 3.02774 14.3807 2.95174 14.1287 2.69967Z" fill="#0ED290"></path>
    <path d="M16 21.1919C17.6569 21.1919 19 19.8487 19 18.1919C19 16.535 17.6569 15.1919 16 15.1919C14.3431 15.1919 13 16.535 13 18.1919C13 19.8487 14.3431 21.1919 16 21.1919Z" fill="white"></path>
    <path d="M15 18.1919C15 16.8858 15.8349 15.7752 17 15.3633C16.6788 15.2497 16.3407 15.1917 16 15.1919C14.3431 15.1919 13 16.535 13 18.1919C13 19.8488 14.3431 21.1919 16 21.1919C16.3507 21.1919 16.6871 21.1311 17 21.0205C15.8349 20.6086 15 19.498 15 18.1919Z" fill="#F2FBFF"></path>
    <path d="M16 20.1594C15.496 20.1594 14.992 19.9676 14.6082 19.5839C13.8409 18.8164 13.8409 17.5678 14.6082 16.8004C15.3259 16.0829 16.4641 16.0362 17.2363 16.6606C17.3233 16.7309 17.331 16.8611 17.2519 16.9402L16.8507 17.3413C16.8193 17.3729 16.7776 17.3921 16.7332 17.3956C16.6888 17.3991 16.6447 17.3866 16.6087 17.3603C16.1929 17.0557 15.5987 17.1019 15.2372 17.4989C14.8837 17.8871 14.8837 18.4971 15.2372 18.8852C15.5987 19.2823 16.1929 19.3286 16.6087 19.0239C16.6447 18.9976 16.6888 18.9851 16.7332 18.9886C16.7776 18.9921 16.8193 19.0113 16.8507 19.0429L17.2519 19.444C17.331 19.5231 17.3234 19.6533 17.2363 19.7236C16.8771 20.0141 16.4386 20.1594 16 20.1594Z" fill="#0ED290"></path>
  </g>
  <defs>
    <clipPath id="clip0_455_6811">
      <rect width="32" height="32" fill="white"></rect>
    </clipPath>
  </defs>
</svg>
