<?xml version="1.0" encoding="UTF-8"?>
<svg xmlns="http://www.w3.org/2000/svg" width="32" height="32" viewBox="0 0 32 32" fill="none">
  <g clip-path="url(#clip0_517_5451)">
    <path d="M29.1313 6.85599C30.9395 9.44786 32 12.6001 32 16C32 21.4323 29.2928 26.2323 25.154 29.1244C24.9197 29.2881 24.1462 28.8236 23.9029 28.9748C21.4534 30.4981 19.2763 31.4642 16.1796 31.4642C13.0084 31.4642 10.7136 30.4385 8.22713 28.8472C8.04431 28.7302 7.02369 29.2485 6.84606 29.1245C2.70719 26.2323 0 21.4323 0 16C0 12.6001 1.0605 9.44786 2.86869 6.85599C2.98794 6.68505 29.0121 6.68505 29.1313 6.85599Z" fill="#54469D"></path>
    <path d="M29.147 16.6885C29.147 23.9495 23.2608 29.8358 15.9998 29.8358C8.73879 29.8358 2.85254 23.9495 2.85254 16.6885C2.85254 9.42751 8.73879 3.54126 15.9998 3.54126C23.2608 3.54126 29.147 9.42745 29.147 16.6885Z" fill="#6354B2"></path>
    <path d="M27.903 6.95341L16.0001 19.9872L4.05194 6.8896C4.05194 6.8896 3.95738 5.42747 4.58519 4.78841C5.30792 4.0526 6.09976 3.38802 6.94976 2.80385C6.99126 2.77535 25.0089 2.77535 25.0504 2.80385C25.9004 3.38802 26.6923 4.0526 27.415 4.78841C28.0428 5.42747 27.903 6.95341 27.903 6.95341Z" fill="#4BCD5C"></path>
    <path d="M15.2114 19.1986L2.86865 6.85583C3.38211 6.11998 3.95626 5.4284 4.58509 4.78833L15.2114 19.1986Z" fill="#00C53B"></path>
    <path d="M27.4149 4.78833C28.0437 5.4284 28.6179 6.11998 29.1313 6.85583L16.7886 19.1986L27.4149 4.78833Z" fill="#74D579"></path>
    <path d="M20.0769 0.524216C21.068 0.784645 22.0316 1.14036 22.9543 1.5864C23.6857 1.93997 24.0944 3.13972 24.0944 3.13972L15.9999 19.9873L8.05713 3.29928C8.05713 3.29928 8.31425 1.9399 9.04563 1.5864C9.96825 1.14036 10.9319 0.784645 11.923 0.524216C12.0035 0.503091 15.9999 7.74334 15.9999 7.74334C15.9999 7.74334 19.9964 0.503091 20.0769 0.524216Z" fill="#FF73C6"></path>
    <path d="M9.04583 1.58643L16.0001 19.9873L6.94971 2.80386C7.6166 2.34558 8.31732 1.9386 9.04583 1.58643Z" fill="#FF4FB8"></path>
    <path d="M22.9543 1.58643C23.6827 1.93861 24.3834 2.34559 25.0503 2.80386L16 19.9873L22.9543 1.58643Z" fill="#FF94D4"></path>
    <path d="M15.9998 0C17.4087 0 18.7751 0.182125 20.0767 0.524125L15.9998 19.9872L11.9229 0.524125C13.2245 0.182125 14.5909 0 15.9998 0Z" fill="#FFF261"></path>
    <path d="M16.0002 6.74327e-07C17.4091 6.74327e-07 18.7755 0.182126 20.0771 0.524126L18.0907 10.0069C17.8255 11.2731 16.0176 11.2731 15.7524 10.0069L13.6909 0.165438C14.4557 0.0550654 15.2274 -0.000222732 16.0002 6.74327e-07Z" fill="#FFF587"></path>
    <path d="M9.125 21.7107C8.26206 21.7107 7.5625 21.0111 7.5625 20.1482V19.5232C7.5625 18.6603 8.26206 17.9607 9.125 17.9607C9.98794 17.9607 10.6875 18.6603 10.6875 19.5232V20.1482C10.6875 21.0112 9.98794 21.7107 9.125 21.7107Z" fill="#FED2A4"></path>
    <path d="M10.3752 27.3357H12.4064C10.6157 27.3357 9.07625 28.4116 8.39925 29.9521C8.37444 30.0085 8.30713 30.0326 8.25325 30.0028C7.76936 29.7345 7.29971 29.4413 6.84619 29.1243C7.64244 28.0397 8.92657 27.3357 10.3752 27.3357Z" fill="#F6A96C"></path>
    <path d="M21.3125 20.1482V19.5232C21.3125 18.6603 22.0121 17.9607 22.875 17.9607C23.7379 17.9607 24.4375 18.6603 24.4375 19.5232V20.1482C24.4375 21.0111 23.7379 21.7107 22.875 21.7107C22.0121 21.7107 21.3125 21.0112 21.3125 20.1482ZM8.5 20.4607V19.2107C8.5 18.6996 8.74544 18.2458 9.12488 17.9607C8.262 17.9608 7.5625 18.6603 7.5625 19.5232V20.1482C7.5625 21.0111 8.262 21.7106 9.12488 21.7107C8.74544 21.4256 8.5 20.9719 8.5 20.4607ZM21.625 27.3358H17.875V25.4608H16.1946C13.4244 24.4847 11.4389 21.8443 11.4389 18.7402V16.1498C11.4389 15.5641 11.3802 14.4504 11.3802 14.4504H9.96606C9.68644 14.4504 9.43787 14.6353 9.36462 14.9052C9.20515 15.4938 9.12459 16.1009 9.12506 16.7108V19.2108C9.12506 22.3577 11.2394 25.0108 14.1251 25.8269V27.3358H12.2501C10.4454 27.3358 8.89588 28.4284 8.22713 29.9884C10.5284 31.2699 13.1789 32 16 32C19.4043 32 22.5602 30.9368 25.154 29.1244C24.3577 28.0398 23.0736 27.3358 21.625 27.3358Z" fill="#FFBD86"></path>
    <path d="M16.4688 6.40825V11.4822C16.4688 11.7411 16.2589 11.9509 16 11.9509C15.7411 11.9509 15.5313 11.7411 15.5313 11.4822V6.40825C15.5313 6.14932 15.7411 5.9395 16 5.9395C16.2589 5.9395 16.4688 6.14932 16.4688 6.40825ZM16 2.36182C15.9384 2.36181 15.8775 2.37393 15.8206 2.39748C15.7637 2.42103 15.7121 2.45556 15.6685 2.49909C15.625 2.54262 15.5905 2.5943 15.5669 2.65117C15.5434 2.70805 15.5312 2.76901 15.5313 2.83057V4.12332C15.5313 4.38225 15.7411 4.59207 16 4.59207C16.2589 4.59207 16.4688 4.38225 16.4688 4.12332V2.83057C16.4688 2.57163 16.2589 2.36182 16 2.36182Z" fill="white"></path>
    <path d="M10.3687 11.3517L6.94294 7.60886C6.859 7.51716 6.74208 7.46255 6.61788 7.45705C6.49369 7.45156 6.37239 7.49562 6.28069 7.57955C6.18898 7.66348 6.13437 7.78041 6.12888 7.9046C6.12338 8.0288 6.16744 8.15009 6.25137 8.2418L9.67719 11.9846C9.71873 12.03 9.76882 12.0669 9.82459 12.0929C9.88037 12.119 9.94073 12.1338 10.0022 12.1365C10.0637 12.1392 10.1252 12.1298 10.183 12.1088C10.2409 12.0877 10.294 12.0555 10.3394 12.0139C10.4311 11.93 10.4857 11.8131 10.4912 11.6889C10.4967 11.5647 10.4527 11.4434 10.3687 11.3517ZM21.6942 12.0139C21.7396 12.0555 21.7927 12.0878 21.8506 12.1088C21.9084 12.1298 21.9699 12.1393 22.0314 12.1365C22.0929 12.1338 22.1533 12.119 22.209 12.0929C22.2648 12.0669 22.3149 12.0301 22.3564 11.9846L25.7822 8.2418C25.8662 8.15009 25.9102 8.0288 25.9047 7.9046C25.8992 7.78041 25.8446 7.66348 25.7529 7.57955C25.7075 7.53798 25.6544 7.50576 25.5965 7.48473C25.5387 7.4637 25.4772 7.45428 25.4157 7.457C25.3542 7.45972 25.2939 7.47454 25.2381 7.50059C25.1823 7.52665 25.1322 7.56344 25.0907 7.60886L21.6649 11.3517C21.581 11.4434 21.5369 11.5647 21.5424 11.6889C21.5479 11.8131 21.6025 11.93 21.6942 12.0139Z" fill="#AFE6AF"></path>
    <path d="M11.7291 6.50415C11.7106 6.44502 11.6806 6.39014 11.6408 6.34269C11.6009 6.29523 11.5521 6.25614 11.4971 6.22768C11.4421 6.19922 11.3819 6.18195 11.3202 6.17687C11.2584 6.17179 11.1963 6.179 11.1374 6.19808C11.0784 6.21717 11.0238 6.24774 10.9768 6.28805C10.9297 6.32835 10.8911 6.37758 10.8632 6.43289C10.8353 6.48821 10.8187 6.5485 10.8142 6.61029C10.8097 6.67209 10.8176 6.73415 10.8373 6.7929L11.5862 9.10633C11.6051 9.16492 11.6354 9.21919 11.6754 9.26605C11.7153 9.31292 11.7641 9.35146 11.8189 9.37946C11.8737 9.40747 11.9335 9.42439 11.9949 9.42927C12.0563 9.43415 12.118 9.42689 12.1766 9.4079C12.2948 9.3696 12.393 9.28589 12.4496 9.17519C12.5061 9.06449 12.5164 8.93585 12.4781 8.81758L11.7291 6.50415ZM19.5556 8.81758C19.5302 8.89584 19.5259 8.97938 19.5431 9.05983C19.5602 9.14028 19.5983 9.21479 19.6533 9.27589C19.7084 9.33699 19.7786 9.38251 19.8568 9.4079C19.9351 9.43329 20.0186 9.43764 20.0991 9.42052C20.1796 9.4034 20.2543 9.36534 20.3154 9.31018C20.3766 9.25502 20.4222 9.18471 20.4475 9.10633L21.1964 6.7929C21.2333 6.67502 21.2221 6.54736 21.1654 6.43766C21.1087 6.32796 21.0109 6.24508 20.8934 6.20704C20.7759 6.169 20.6482 6.17887 20.5379 6.2345C20.4276 6.29013 20.3438 6.38704 20.3046 6.50415L19.5556 8.81758Z" fill="#FFC7E8"></path>
    <path d="M22.034 14.4504C22.3136 14.4504 22.5622 14.6353 22.6354 14.9052C22.7949 15.4938 22.8755 16.1009 22.875 16.7108V19.2108C22.875 22.3853 20.7234 25.0572 17.799 25.8479C17.2348 26.0004 16.6402 26.0004 16.076 25.8479C13.1516 25.0572 11 22.3853 11 19.2108V16.7108C11 15.9189 11.1339 15.1584 11.3802 14.4504H22.034Z" fill="#FED2A4"></path>
    <path d="M14.6529 16.1918C14.7408 16.2797 14.7902 16.3989 14.7902 16.5232C14.7902 16.6476 14.7408 16.7668 14.6529 16.8547C14.3178 17.1897 13.8777 17.3572 13.4376 17.3572C12.9974 17.3572 12.5573 17.1897 12.2223 16.8547C12.1343 16.7668 12.085 16.6475 12.085 16.5232C12.085 16.3989 12.1343 16.2797 12.2223 16.1917C12.3102 16.1038 12.4294 16.0544 12.5537 16.0544C12.6781 16.0544 12.7973 16.1038 12.8852 16.1917C13.1898 16.4963 13.6854 16.4963 13.9901 16.1917C14.0336 16.1482 14.0853 16.1137 14.1421 16.0901C14.199 16.0666 14.2599 16.0545 14.3215 16.0545C14.383 16.0545 14.444 16.0666 14.5008 16.0902C14.5577 16.1137 14.6094 16.1483 14.6529 16.1918ZM19.7779 16.1918C19.7344 16.1483 19.6827 16.1137 19.6258 16.0902C19.5689 16.0666 19.508 16.0545 19.4464 16.0545C19.3849 16.0545 19.3239 16.0666 19.267 16.0901C19.2102 16.1137 19.1585 16.1482 19.1149 16.1917C18.8103 16.4963 18.3147 16.4963 18.0101 16.1917C17.9665 16.1482 17.9149 16.1137 17.858 16.0901C17.8011 16.0666 17.7402 16.0544 17.6786 16.0544C17.617 16.0544 17.5561 16.0666 17.4992 16.0901C17.4423 16.1137 17.3907 16.1482 17.3471 16.1917C17.3036 16.2353 17.2691 16.2869 17.2455 16.3438C17.222 16.4007 17.2098 16.4617 17.2098 16.5232C17.2098 16.5848 17.222 16.6457 17.2455 16.7026C17.2691 16.7595 17.3036 16.8112 17.3471 16.8547C17.6822 17.1897 18.1223 17.3572 18.5624 17.3572C19.0026 17.3572 19.4427 17.1897 19.7778 16.8547C19.8213 16.8112 19.8559 16.7595 19.8794 16.7026C19.903 16.6458 19.9151 16.5848 19.9151 16.5233C19.9152 16.4617 19.903 16.4008 19.8795 16.3439C19.8559 16.287 19.8214 16.2353 19.7779 16.1918Z" fill="#EA9B58"></path>
    <path d="M15.0936 19.6315C15.0063 19.5435 14.9575 19.4245 14.9577 19.3005C14.958 19.1765 15.0073 19.0577 15.095 18.9701C15.1826 18.8824 15.3015 18.833 15.4254 18.8328C15.5494 18.8325 15.6684 18.8813 15.7565 18.9686C15.8216 19.0337 15.908 19.0696 15.9998 19.0696C16.0916 19.0696 16.178 19.0337 16.2431 18.9686C16.3315 18.8831 16.4499 18.8358 16.5729 18.8369C16.6959 18.8379 16.8135 18.8872 16.9004 18.9742C16.9874 19.0611 17.0367 19.1788 17.0377 19.3017C17.0387 19.4247 16.9914 19.5431 16.906 19.6315C16.6638 19.8737 16.342 20.0071 15.9997 20.0071C15.6575 20.0071 15.3358 19.8737 15.0936 19.6315ZM17.8938 21.3565C17.8059 21.2686 17.6866 21.2193 17.5623 21.2193C17.438 21.2193 17.3188 21.2686 17.2309 21.3565C16.5521 22.0353 15.4476 22.0353 14.7688 21.3565C14.6804 21.2711 14.5619 21.2238 14.4389 21.2248C14.316 21.2259 14.1984 21.2752 14.1114 21.3621C14.0245 21.4491 13.9752 21.5667 13.9741 21.6897C13.9731 21.8126 14.0204 21.9311 14.1059 22.0195C14.628 22.5416 15.314 22.8027 15.9998 22.8027C16.6857 22.8027 17.3716 22.5416 17.8938 22.0195C17.9373 21.9759 17.9718 21.9243 17.9954 21.8674C18.0189 21.8105 18.0311 21.7496 18.0311 21.688C18.0311 21.6264 18.0189 21.5655 17.9954 21.5086C17.9718 21.4517 17.9373 21.4001 17.8938 21.3565Z" fill="#F6A96C"></path>
  </g>
  <defs>
    <clipPath id="clip0_517_5451">
      <rect width="32" height="32" fill="white"></rect>
    </clipPath>
  </defs>
</svg>
