<?xml version="1.0" encoding="UTF-8"?>
<svg xmlns="http://www.w3.org/2000/svg" width="32" height="32" viewBox="0 0 32 32" fill="none">
  <g clip-path="url(#clip0_455_6865)">
    <path d="M32 16C32 23.7025 26.5562 30.1344 19.3062 31.6575C18.219 31.8858 17.111 32.0006 16 32C14.0519 32 13.7 28.4013 11.9731 27.7631C10.1831 27.1024 7.02938 29.3813 5.60625 28.1644C2.175 25.23 0 20.8687 0 16C0 7.16375 7.16375 0 16 0C24.8363 0 32 7.16375 32 16Z" fill="#BA83E5"></path>
    <path d="M7.90186 9.45459H17.9839V13.4847H7.90186V9.45459Z" fill="#9CE2DD"></path>
    <path d="M7.90186 9.45459H11.1504V13.4847H7.90186V9.45459Z" fill="#89CEC8"></path>
    <path d="M20.2802 13.8138V29.8675C20.2802 30.6175 19.8927 31.2775 19.3064 31.6575C18.9616 31.8818 18.559 32.0008 18.1477 32H16.0002C14.0521 32 12.1852 31.6519 10.4583 31.0138C10.2333 30.9307 10.0102 30.8425 9.7902 30.75C9.37951 30.5771 8.97795 28.5333 8.58582 28.3279C7.98607 28.0136 7.40857 29.5164 6.85645 29.1313C6.42395 28.8294 6.00645 28.5063 5.60645 28.1644V13.8138C5.60645 12.6357 6.56082 11.6807 7.73895 11.6807H18.1477C19.3252 11.6807 20.2802 12.6357 20.2802 13.8138Z" fill="#B1F2EB"></path>
    <path d="M19.0302 17.7062V29.8674C19.0302 30.3549 18.6352 30.7499 18.1477 30.7499H9.7902C8.75816 30.3148 7.77482 29.7723 6.85645 29.1312V17.7062C6.85645 17.2374 7.23645 16.8574 7.7052 16.8574H18.1814C18.6502 16.8574 19.0302 17.2374 19.0302 17.7062Z" fill="#FFCD50"></path>
    <path d="M10.1239 13.8138V29.8675C10.1239 30.2894 10.2464 30.6825 10.4583 31.0138C10.2337 30.9309 10.0109 30.8429 9.79026 30.7499C9.29945 30.5431 9.05013 28.5809 8.58582 28.3279C8.0677 28.0456 7.33795 29.4671 6.85651 29.1312C6.42424 28.8296 6.00705 28.507 5.60645 28.1644V13.8138C5.60645 12.6357 6.56145 11.6807 7.73895 11.6807H12.2571C11.0789 11.6807 10.1239 12.6357 10.1239 13.8138Z" fill="#9CE2DD"></path>
    <path d="M18.27 4.80694H7.61572L11.5038 0.35175C11.6002 0.241299 11.7192 0.152764 11.8526 0.0920933C11.9861 0.0314227 12.131 2.17273e-05 12.2777 0L13.608 0C13.9043 0 14.1868 0.128437 14.3818 0.35175L18.27 4.80694Z" fill="#F4EEE4"></path>
    <path d="M12.7083 0L11.1653 4.80694H7.61572L11.5038 0.35175C11.6002 0.241299 11.7192 0.152764 11.8526 0.0920933C11.9861 0.0314227 12.131 2.17273e-05 12.2777 0L12.7083 0Z" fill="#EAE3D8"></path>
    <path d="M17.9268 4.21069H7.95892C7.24567 4.21069 6.66748 4.78888 6.66748 5.50213V9.31669C6.66748 10.0299 7.24567 10.6081 7.95892 10.6081H17.9267C18.64 10.6081 19.2182 10.0299 19.2182 9.31669V5.50213C19.2182 4.78888 18.64 4.21069 17.9268 4.21069Z" fill="#FFFBF3"></path>
    <path d="M11.1504 10.6081H7.95892C7.24579 10.6081 6.66748 10.0298 6.66748 9.31663V5.50213C6.66748 4.78851 7.24579 4.21069 7.95892 4.21069H11.1504C10.4373 4.21069 9.85898 4.78844 9.85898 5.50213V9.31669C9.85898 10.0298 10.4373 10.6081 11.1504 10.6081Z" fill="#F4EEE4"></path>
    <path d="M10.3152 30.7499H9.7902C8.75816 30.3148 7.77482 29.7723 6.85645 29.1312V17.7062C6.85645 17.2374 7.23645 16.8574 7.7052 16.8574H10.1239V29.8674C10.1239 30.1824 10.1921 30.4812 10.3152 30.7499Z" fill="#FFB452"></path>
    <path d="M22.8098 26.2729C26.5708 26.2729 29.6196 23.2241 29.6196 19.4631C29.6196 15.7022 26.5708 12.6533 22.8098 12.6533C19.0489 12.6533 16 15.7022 16 19.4631C16 23.2241 19.0489 26.2729 22.8098 26.2729Z" fill="#FFFBF3"></path>
    <path d="M24.5044 26.0607C23.9625 26.1994 23.395 26.2732 22.81 26.2732C19.0494 26.2732 16 23.2244 16 19.4632C16 15.7026 19.0494 12.6538 22.81 12.6538C23.395 12.6538 23.9625 12.7276 24.5044 12.8663C21.5631 13.6188 19.3888 16.2869 19.3888 19.4632C19.3888 22.6394 21.5631 25.3082 24.5044 26.0607Z" fill="#F4EEE4"></path>
    <path d="M19.0703 23.6406C18.6561 23.6406 18.3203 23.3048 18.3203 22.8906V16.0487C18.3203 15.8888 18.3714 15.733 18.4661 15.6042C18.5609 15.4753 18.6944 15.3802 18.8471 15.3326C18.9997 15.285 19.1637 15.2874 19.3148 15.3396C19.466 15.3918 19.5966 15.4909 19.6874 15.6225L23.1034 20.5691L23.0597 16.0432C23.0557 15.629 23.3882 15.29 23.8024 15.286H23.8097C24.2206 15.286 24.5556 15.617 24.5596 16.0287L24.6236 22.6524L24.6236 22.6596C24.6236 23.0738 24.3906 23.4142 24.0297 23.5269C23.6771 23.6368 23.3042 23.4986 23.0794 23.1741L19.8203 18.4546V22.8906C19.8203 23.3048 19.4845 23.6406 19.0703 23.6406ZM26.549 23.6406C26.1348 23.6406 25.799 23.3048 25.799 22.8906V16.0359C25.799 15.6217 26.1348 15.2859 26.549 15.2859C26.9632 15.2859 27.299 15.6217 27.299 16.0359V22.8906C27.299 23.3048 26.9632 23.6406 26.549 23.6406Z" fill="#5F467C"></path>
  </g>
  <defs>
    <clipPath id="clip0_455_6865">
      <rect width="32" height="32" fill="white"></rect>
    </clipPath>
  </defs>
</svg>
