<svg width="85" height="327" viewBox="0 0 85 327" fill="none" xmlns="http://www.w3.org/2000/svg">
<path d="M-37.5 7C-35.5669 7 -34 5.43298 -34 3.5C-34 1.56702 -35.5669 0 -37.5 0C-39.4331 0 -41 1.56702 -41 3.5C-41 5.43298 -39.4331 7 -37.5 7Z" fill="#C0D3FB"/>
<path d="M-37.5 23C-35.5669 23 -34 21.433 -34 19.5C-34 17.567 -35.5669 16 -37.5 16C-39.4331 16 -41 17.567 -41 19.5C-41 21.433 -39.4331 23 -37.5 23Z" fill="#C0D3FB"/>
<path d="M-34 35.5C-34 37.433 -35.5669 39 -37.5 39C-39.4331 39 -41 37.433 -41 35.5C-41 33.567 -39.4331 32 -37.5 32C-35.5669 32 -34 33.567 -34 35.5Z" fill="#C0D3FB"/>
<path d="M-37.5 55C-35.5669 55 -34 53.433 -34 51.5C-34 49.567 -35.5669 48 -37.5 48C-39.4331 48 -41 49.567 -41 51.5C-41 53.433 -39.4331 55 -37.5 55Z" fill="#C0D3FB"/>
<path d="M-34 67.5C-34 69.433 -35.5669 71 -37.5 71C-39.4331 71 -41 69.433 -41 67.5C-41 65.567 -39.4331 64 -37.5 64C-35.5669 64 -34 65.567 -34 67.5Z" fill="#C0D3FB"/>
<path d="M-37.5 87C-35.5669 87 -34 85.433 -34 83.5C-34 81.567 -35.5669 80 -37.5 80C-39.4331 80 -41 81.567 -41 83.5C-41 85.433 -39.4331 87 -37.5 87Z" fill="#C0D3FB"/>
<path d="M-17 3.5C-17 5.43298 -18.5669 7 -20.5 7C-22.4331 7 -24 5.43298 -24 3.5C-24 1.56702 -22.4331 0 -20.5 0C-18.5669 0 -17 1.56702 -17 3.5Z" fill="#C0D3FB"/>
<path d="M-20.5 23C-18.5669 23 -17 21.433 -17 19.5C-17 17.567 -18.5669 16 -20.5 16C-22.4331 16 -24 17.567 -24 19.5C-24 21.433 -22.4331 23 -20.5 23Z" fill="#C0D3FB"/>
<path d="M-17 35.5C-17 37.433 -18.5669 39 -20.5 39C-22.4331 39 -24 37.433 -24 35.5C-24 33.567 -22.4331 32 -20.5 32C-18.5669 32 -17 33.567 -17 35.5Z" fill="#C0D3FB"/>
<path d="M-20.5 55C-18.5669 55 -17 53.433 -17 51.5C-17 49.567 -18.5669 48 -20.5 48C-22.4331 48 -24 49.567 -24 51.5C-24 53.433 -22.4331 55 -20.5 55Z" fill="#C0D3FB"/>
<path d="M-17 67.5C-17 69.433 -18.5669 71 -20.5 71C-22.4331 71 -24 69.433 -24 67.5C-24 65.567 -22.4331 64 -20.5 64C-18.5669 64 -17 65.567 -17 67.5Z" fill="#C0D3FB"/>
<path d="M-20.5 87C-18.5669 87 -17 85.433 -17 83.5C-17 81.567 -18.5669 80 -20.5 80C-22.4331 80 -24 81.567 -24 83.5C-24 85.433 -22.4331 87 -20.5 87Z" fill="#C0D3FB"/>
<path d="M0 3.5C0 5.43298 -1.56689 7 -3.5 7C-5.43311 7 -7 5.43298 -7 3.5C-7 1.56702 -5.43311 0 -3.5 0C-1.56689 0 0 1.56702 0 3.5Z" fill="#C0D3FB"/>
<path d="M-3.5 23C-1.56689 23 0 21.433 0 19.5C0 17.567 -1.56689 16 -3.5 16C-5.43311 16 -7 17.567 -7 19.5C-7 21.433 -5.43311 23 -3.5 23Z" fill="#C0D3FB"/>
<path d="M0 35.5C0 37.433 -1.56689 39 -3.5 39C-5.43311 39 -7 37.433 -7 35.5C-7 33.567 -5.43311 32 -3.5 32C-1.56689 32 0 33.567 0 35.5Z" fill="#C0D3FB"/>
<path d="M-3.5 55C-1.56689 55 0 53.433 0 51.5C0 49.567 -1.56689 48 -3.5 48C-5.43311 48 -7 49.567 -7 51.5C-7 53.433 -5.43311 55 -3.5 55Z" fill="#C0D3FB"/>
<path d="M0 67.5C0 69.433 -1.56689 71 -3.5 71C-5.43311 71 -7 69.433 -7 67.5C-7 65.567 -5.43311 64 -3.5 64C-1.56689 64 0 65.567 0 67.5Z" fill="#C0D3FB"/>
<path d="M-3.5 87C-1.56689 87 0 85.433 0 83.5C0 81.567 -1.56689 80 -3.5 80C-5.43311 80 -7 81.567 -7 83.5C-7 85.433 -5.43311 87 -3.5 87Z" fill="#C0D3FB"/>
<path d="M17 3.5C17 5.43298 15.4331 7 13.5 7C11.5669 7 10 5.43298 10 3.5C10 1.56702 11.5669 0 13.5 0C15.4331 0 17 1.56702 17 3.5Z" fill="#C0D3FB"/>
<path d="M13.5 23C15.4331 23 17 21.433 17 19.5C17 17.567 15.4331 16 13.5 16C11.5669 16 10 17.567 10 19.5C10 21.433 11.5669 23 13.5 23Z" fill="#C0D3FB"/>
<path d="M17 35.5C17 37.433 15.4331 39 13.5 39C11.5669 39 10 37.433 10 35.5C10 33.567 11.5669 32 13.5 32C15.4331 32 17 33.567 17 35.5Z" fill="#C0D3FB"/>
<path d="M13.5 55C15.4331 55 17 53.433 17 51.5C17 49.567 15.4331 48 13.5 48C11.5669 48 10 49.567 10 51.5C10 53.433 11.5669 55 13.5 55Z" fill="#C0D3FB"/>
<path d="M17 67.5C17 69.433 15.4331 71 13.5 71C11.5669 71 10 69.433 10 67.5C10 65.567 11.5669 64 13.5 64C15.4331 64 17 65.567 17 67.5Z" fill="#C0D3FB"/>
<path d="M13.5 87C15.4331 87 17 85.433 17 83.5C17 81.567 15.4331 80 13.5 80C11.5669 80 10 81.567 10 83.5C10 85.433 11.5669 87 13.5 87Z" fill="#C0D3FB"/>
<path d="M-34 99.5C-34 101.433 -35.5669 103 -37.5 103C-39.4331 103 -41 101.433 -41 99.5C-41 97.567 -39.4331 96 -37.5 96C-35.5669 96 -34 97.567 -34 99.5Z" fill="#C0D3FB"/>
<path d="M-20.5 103C-18.5669 103 -17 101.433 -17 99.5C-17 97.567 -18.5669 96 -20.5 96C-22.4331 96 -24 97.567 -24 99.5C-24 101.433 -22.4331 103 -20.5 103Z" fill="#C0D3FB"/>
<path d="M0 99.5C0 101.433 -1.56689 103 -3.5 103C-5.43311 103 -7 101.433 -7 99.5C-7 97.567 -5.43311 96 -3.5 96C-1.56689 96 0 97.567 0 99.5Z" fill="#C0D3FB"/>
<path d="M13.5 103C15.4331 103 17 101.433 17 99.5C17 97.567 15.4331 96 13.5 96C11.5669 96 10 97.567 10 99.5C10 101.433 11.5669 103 13.5 103Z" fill="#C0D3FB"/>
<path d="M30.5 7C32.4331 7 34 5.43298 34 3.5C34 1.56702 32.4331 0 30.5 0C28.5669 0 27 1.56702 27 3.5C27 5.43298 28.5669 7 30.5 7Z" fill="#C0D3FB"/>
<path d="M34 19.5C34 21.433 32.4331 23 30.5 23C28.5669 23 27 21.433 27 19.5C27 17.567 28.5669 16 30.5 16C32.4331 16 34 17.567 34 19.5Z" fill="#C0D3FB"/>
<path d="M30.5 39C32.4331 39 34 37.433 34 35.5C34 33.567 32.4331 32 30.5 32C28.5669 32 27 33.567 27 35.5C27 37.433 28.5669 39 30.5 39Z" fill="#C0D3FB"/>
<path d="M34 51.5C34 53.433 32.4331 55 30.5 55C28.5669 55 27 53.433 27 51.5C27 49.567 28.5669 48 30.5 48C32.4331 48 34 49.567 34 51.5Z" fill="#C0D3FB"/>
<path d="M30.5 71C32.4331 71 34 69.433 34 67.5C34 65.567 32.4331 64 30.5 64C28.5669 64 27 65.567 27 67.5C27 69.433 28.5669 71 30.5 71Z" fill="#C0D3FB"/>
<path d="M34 83.5C34 85.433 32.4331 87 30.5 87C28.5669 87 27 85.433 27 83.5C27 81.567 28.5669 80 30.5 80C32.4331 80 34 81.567 34 83.5Z" fill="#C0D3FB"/>
<path d="M47.5 7C49.4331 7 51 5.43298 51 3.5C51 1.56702 49.4331 0 47.5 0C45.5669 0 44 1.56702 44 3.5C44 5.43298 45.5669 7 47.5 7Z" fill="#C0D3FB"/>
<path d="M51 19.5C51 21.433 49.4331 23 47.5 23C45.5669 23 44 21.433 44 19.5C44 17.567 45.5669 16 47.5 16C49.4331 16 51 17.567 51 19.5Z" fill="#C0D3FB"/>
<path d="M47.5 39C49.4331 39 51 37.433 51 35.5C51 33.567 49.4331 32 47.5 32C45.5669 32 44 33.567 44 35.5C44 37.433 45.5669 39 47.5 39Z" fill="#C0D3FB"/>
<path d="M51 51.5C51 53.433 49.4331 55 47.5 55C45.5669 55 44 53.433 44 51.5C44 49.567 45.5669 48 47.5 48C49.4331 48 51 49.567 51 51.5Z" fill="#C0D3FB"/>
<path d="M47.5 71C49.4331 71 51 69.433 51 67.5C51 65.567 49.4331 64 47.5 64C45.5669 64 44 65.567 44 67.5C44 69.433 45.5669 71 47.5 71Z" fill="#C0D3FB"/>
<path d="M51 83.5C51 85.433 49.4331 87 47.5 87C45.5669 87 44 85.433 44 83.5C44 81.567 45.5669 80 47.5 80C49.4331 80 51 81.567 51 83.5Z" fill="#C0D3FB"/>
<path d="M64.5 7C66.4331 7 68 5.43298 68 3.5C68 1.56702 66.4331 0 64.5 0C62.5669 0 61 1.56702 61 3.5C61 5.43298 62.5669 7 64.5 7Z" fill="#C0D3FB"/>
<path d="M68 19.5C68 21.433 66.4331 23 64.5 23C62.5669 23 61 21.433 61 19.5C61 17.567 62.5669 16 64.5 16C66.4331 16 68 17.567 68 19.5Z" fill="#C0D3FB"/>
<path d="M64.5 39C66.4331 39 68 37.433 68 35.5C68 33.567 66.4331 32 64.5 32C62.5669 32 61 33.567 61 35.5C61 37.433 62.5669 39 64.5 39Z" fill="#C0D3FB"/>
<path d="M68 51.5C68 53.433 66.4331 55 64.5 55C62.5669 55 61 53.433 61 51.5C61 49.567 62.5669 48 64.5 48C66.4331 48 68 49.567 68 51.5Z" fill="#C0D3FB"/>
<path d="M64.5 71C66.4331 71 68 69.433 68 67.5C68 65.567 66.4331 64 64.5 64C62.5669 64 61 65.567 61 67.5C61 69.433 62.5669 71 64.5 71Z" fill="#C0D3FB"/>
<path d="M68 83.5C68 85.433 66.4331 87 64.5 87C62.5669 87 61 85.433 61 83.5C61 81.567 62.5669 80 64.5 80C66.4331 80 68 81.567 68 83.5Z" fill="#C0D3FB"/>
<path d="M81.5 7C83.4331 7 85 5.43298 85 3.5C85 1.56702 83.4331 0 81.5 0C79.5669 0 78 1.56702 78 3.5C78 5.43298 79.5669 7 81.5 7Z" fill="#C0D3FB"/>
<path d="M85 19.5C85 21.433 83.4331 23 81.5 23C79.5669 23 78 21.433 78 19.5C78 17.567 79.5669 16 81.5 16C83.4331 16 85 17.567 85 19.5Z" fill="#C0D3FB"/>
<path d="M81.5 39C83.4331 39 85 37.433 85 35.5C85 33.567 83.4331 32 81.5 32C79.5669 32 78 33.567 78 35.5C78 37.433 79.5669 39 81.5 39Z" fill="#C0D3FB"/>
<path d="M85 51.5C85 53.433 83.4331 55 81.5 55C79.5669 55 78 53.433 78 51.5C78 49.567 79.5669 48 81.5 48C83.4331 48 85 49.567 85 51.5Z" fill="#C0D3FB"/>
<path d="M81.5 71C83.4331 71 85 69.433 85 67.5C85 65.567 83.4331 64 81.5 64C79.5669 64 78 65.567 78 67.5C78 69.433 79.5669 71 81.5 71Z" fill="#C0D3FB"/>
<path d="M85 83.5C85 85.433 83.4331 87 81.5 87C79.5669 87 78 85.433 78 83.5C78 81.567 79.5669 80 81.5 80C83.4331 80 85 81.567 85 83.5Z" fill="#C0D3FB"/>
<path d="M34 99.5C34 101.433 32.4331 103 30.5 103C28.5669 103 27 101.433 27 99.5C27 97.567 28.5669 96 30.5 96C32.4331 96 34 97.567 34 99.5Z" fill="#C0D3FB"/>
<path d="M47.5 103C49.4331 103 51 101.433 51 99.5C51 97.567 49.4331 96 47.5 96C45.5669 96 44 97.567 44 99.5C44 101.433 45.5669 103 47.5 103Z" fill="#C0D3FB"/>
<path d="M68 99.5C68 101.433 66.4331 103 64.5 103C62.5669 103 61 101.433 61 99.5C61 97.567 62.5669 96 64.5 96C66.4331 96 68 97.567 68 99.5Z" fill="#C0D3FB"/>
<path d="M81.5 103C83.4331 103 85 101.433 85 99.5C85 97.567 83.4331 96 81.5 96C79.5669 96 78 97.567 78 99.5C78 101.433 79.5669 103 81.5 103Z" fill="#C0D3FB"/>
<path d="M-34 115.5C-34 117.433 -35.5669 119 -37.5 119C-39.4331 119 -41 117.433 -41 115.5C-41 113.567 -39.4331 112 -37.5 112C-35.5669 112 -34 113.567 -34 115.5Z" fill="#C0D3FB"/>
<path d="M-34 131.5C-34 133.433 -35.5669 135 -37.5 135C-39.4331 135 -41 133.433 -41 131.5C-41 129.567 -39.4331 128 -37.5 128C-35.5669 128 -34 129.567 -34 131.5Z" fill="#C0D3FB"/>
<path d="M-37.5 151C-35.5669 151 -34 149.433 -34 147.5C-34 145.567 -35.5669 144 -37.5 144C-39.4331 144 -41 145.567 -41 147.5C-41 149.433 -39.4331 151 -37.5 151Z" fill="#C0D3FB"/>
<path d="M-34 163.5C-34 165.433 -35.5669 167 -37.5 167C-39.4331 167 -41 165.433 -41 163.5C-41 161.567 -39.4331 160 -37.5 160C-35.5669 160 -34 161.567 -34 163.5Z" fill="#C0D3FB"/>
<path d="M-37.5 183C-35.5669 183 -34 181.433 -34 179.5C-34 177.567 -35.5669 176 -37.5 176C-39.4331 176 -41 177.567 -41 179.5C-41 181.433 -39.4331 183 -37.5 183Z" fill="#C0D3FB"/>
<path d="M-34 195.5C-34 197.433 -35.5669 199 -37.5 199C-39.4331 199 -41 197.433 -41 195.5C-41 193.567 -39.4331 192 -37.5 192C-35.5669 192 -34 193.567 -34 195.5Z" fill="#C0D3FB"/>
<path d="M-20.5 119C-18.5669 119 -17 117.433 -17 115.5C-17 113.567 -18.5669 112 -20.5 112C-22.4331 112 -24 113.567 -24 115.5C-24 117.433 -22.4331 119 -20.5 119Z" fill="#C0D3FB"/>
<path d="M-17 131.5C-17 133.433 -18.5669 135 -20.5 135C-22.4331 135 -24 133.433 -24 131.5C-24 129.567 -22.4331 128 -20.5 128C-18.5669 128 -17 129.567 -17 131.5Z" fill="#C0D3FB"/>
<path d="M-20.5 151C-18.5669 151 -17 149.433 -17 147.5C-17 145.567 -18.5669 144 -20.5 144C-22.4331 144 -24 145.567 -24 147.5C-24 149.433 -22.4331 151 -20.5 151Z" fill="#C0D3FB"/>
<path d="M-17 163.5C-17 165.433 -18.5669 167 -20.5 167C-22.4331 167 -24 165.433 -24 163.5C-24 161.567 -22.4331 160 -20.5 160C-18.5669 160 -17 161.567 -17 163.5Z" fill="#C0D3FB"/>
<path d="M-20.5 183C-18.5669 183 -17 181.433 -17 179.5C-17 177.567 -18.5669 176 -20.5 176C-22.4331 176 -24 177.567 -24 179.5C-24 181.433 -22.4331 183 -20.5 183Z" fill="#C0D3FB"/>
<path d="M-17 195.5C-17 197.433 -18.5669 199 -20.5 199C-22.4331 199 -24 197.433 -24 195.5C-24 193.567 -22.4331 192 -20.5 192C-18.5669 192 -17 193.567 -17 195.5Z" fill="#C0D3FB"/>
<path d="M-3.5 119C-1.56689 119 0 117.433 0 115.5C0 113.567 -1.56689 112 -3.5 112C-5.43311 112 -7 113.567 -7 115.5C-7 117.433 -5.43311 119 -3.5 119Z" fill="#C0D3FB"/>
<path d="M0 131.5C0 133.433 -1.56689 135 -3.5 135C-5.43311 135 -7 133.433 -7 131.5C-7 129.567 -5.43311 128 -3.5 128C-1.56689 128 0 129.567 0 131.5Z" fill="#C0D3FB"/>
<path d="M-3.5 151C-1.56689 151 0 149.433 0 147.5C0 145.567 -1.56689 144 -3.5 144C-5.43311 144 -7 145.567 -7 147.5C-7 149.433 -5.43311 151 -3.5 151Z" fill="#C0D3FB"/>
<path d="M0 163.5C0 165.433 -1.56689 167 -3.5 167C-5.43311 167 -7 165.433 -7 163.5C-7 161.567 -5.43311 160 -3.5 160C-1.56689 160 0 161.567 0 163.5Z" fill="#C0D3FB"/>
<path d="M-3.5 183C-1.56689 183 0 181.433 0 179.5C0 177.567 -1.56689 176 -3.5 176C-5.43311 176 -7 177.567 -7 179.5C-7 181.433 -5.43311 183 -3.5 183Z" fill="#C0D3FB"/>
<path d="M0 195.5C0 197.433 -1.56689 199 -3.5 199C-5.43311 199 -7 197.433 -7 195.5C-7 193.567 -5.43311 192 -3.5 192C-1.56689 192 0 193.567 0 195.5Z" fill="#C0D3FB"/>
<path d="M13.5 119C15.4331 119 17 117.433 17 115.5C17 113.567 15.4331 112 13.5 112C11.5669 112 10 113.567 10 115.5C10 117.433 11.5669 119 13.5 119Z" fill="#C0D3FB"/>
<path d="M17 131.5C17 133.433 15.4331 135 13.5 135C11.5669 135 10 133.433 10 131.5C10 129.567 11.5669 128 13.5 128C15.4331 128 17 129.567 17 131.5Z" fill="#C0D3FB"/>
<path d="M13.5 151C15.4331 151 17 149.433 17 147.5C17 145.567 15.4331 144 13.5 144C11.5669 144 10 145.567 10 147.5C10 149.433 11.5669 151 13.5 151Z" fill="#C0D3FB"/>
<path d="M17 163.5C17 165.433 15.4331 167 13.5 167C11.5669 167 10 165.433 10 163.5C10 161.567 11.5669 160 13.5 160C15.4331 160 17 161.567 17 163.5Z" fill="#C0D3FB"/>
<path d="M13.5 183C15.4331 183 17 181.433 17 179.5C17 177.567 15.4331 176 13.5 176C11.5669 176 10 177.567 10 179.5C10 181.433 11.5669 183 13.5 183Z" fill="#C0D3FB"/>
<path d="M17 195.5C17 197.433 15.4331 199 13.5 199C11.5669 199 10 197.433 10 195.5C10 193.567 11.5669 192 13.5 192C15.4331 192 17 193.567 17 195.5Z" fill="#C0D3FB"/>
<path d="M-37.5 215C-35.5669 215 -34 213.433 -34 211.5C-34 209.567 -35.5669 208 -37.5 208C-39.4331 208 -41 209.567 -41 211.5C-41 213.433 -39.4331 215 -37.5 215Z" fill="#C0D3FB"/>
<path d="M-17 211.5C-17 213.433 -18.5669 215 -20.5 215C-22.4331 215 -24 213.433 -24 211.5C-24 209.567 -22.4331 208 -20.5 208C-18.5669 208 -17 209.567 -17 211.5Z" fill="#C0D3FB"/>
<path d="M-3.5 215C-1.56689 215 0 213.433 0 211.5C0 209.567 -1.56689 208 -3.5 208C-5.43311 208 -7 209.567 -7 211.5C-7 213.433 -5.43311 215 -3.5 215Z" fill="#C0D3FB"/>
<path d="M17 211.5C17 213.433 15.4331 215 13.5 215C11.5669 215 10 213.433 10 211.5C10 209.567 11.5669 208 13.5 208C15.4331 208 17 209.567 17 211.5Z" fill="#C0D3FB"/>
<path d="M34 115.5C34 117.433 32.4331 119 30.5 119C28.5669 119 27 117.433 27 115.5C27 113.567 28.5669 112 30.5 112C32.4331 112 34 113.567 34 115.5Z" fill="#C0D3FB"/>
<path d="M30.5 135C32.4331 135 34 133.433 34 131.5C34 129.567 32.4331 128 30.5 128C28.5669 128 27 129.567 27 131.5C27 133.433 28.5669 135 30.5 135Z" fill="#C0D3FB"/>
<path d="M34 147.5C34 149.433 32.4331 151 30.5 151C28.5669 151 27 149.433 27 147.5C27 145.567 28.5669 144 30.5 144C32.4331 144 34 145.567 34 147.5Z" fill="#C0D3FB"/>
<path d="M30.5 167C32.4331 167 34 165.433 34 163.5C34 161.567 32.4331 160 30.5 160C28.5669 160 27 161.567 27 163.5C27 165.433 28.5669 167 30.5 167Z" fill="#C0D3FB"/>
<path d="M34 179.5C34 181.433 32.4331 183 30.5 183C28.5669 183 27 181.433 27 179.5C27 177.567 28.5669 176 30.5 176C32.4331 176 34 177.567 34 179.5Z" fill="#C0D3FB"/>
<path d="M30.5 199C32.4331 199 34 197.433 34 195.5C34 193.567 32.4331 192 30.5 192C28.5669 192 27 193.567 27 195.5C27 197.433 28.5669 199 30.5 199Z" fill="#C0D3FB"/>
<path d="M51 115.5C51 117.433 49.4331 119 47.5 119C45.5669 119 44 117.433 44 115.5C44 113.567 45.5669 112 47.5 112C49.4331 112 51 113.567 51 115.5Z" fill="#C0D3FB"/>
<path d="M47.5 135C49.4331 135 51 133.433 51 131.5C51 129.567 49.4331 128 47.5 128C45.5669 128 44 129.567 44 131.5C44 133.433 45.5669 135 47.5 135Z" fill="#C0D3FB"/>
<path d="M51 147.5C51 149.433 49.4331 151 47.5 151C45.5669 151 44 149.433 44 147.5C44 145.567 45.5669 144 47.5 144C49.4331 144 51 145.567 51 147.5Z" fill="#C0D3FB"/>
<path d="M47.5 167C49.4331 167 51 165.433 51 163.5C51 161.567 49.4331 160 47.5 160C45.5669 160 44 161.567 44 163.5C44 165.433 45.5669 167 47.5 167Z" fill="#C0D3FB"/>
<path d="M51 179.5C51 181.433 49.4331 183 47.5 183C45.5669 183 44 181.433 44 179.5C44 177.567 45.5669 176 47.5 176C49.4331 176 51 177.567 51 179.5Z" fill="#C0D3FB"/>
<path d="M47.5 199C49.4331 199 51 197.433 51 195.5C51 193.567 49.4331 192 47.5 192C45.5669 192 44 193.567 44 195.5C44 197.433 45.5669 199 47.5 199Z" fill="#C0D3FB"/>
<path d="M68 115.5C68 117.433 66.4331 119 64.5 119C62.5669 119 61 117.433 61 115.5C61 113.567 62.5669 112 64.5 112C66.4331 112 68 113.567 68 115.5Z" fill="#C0D3FB"/>
<path d="M64.5 135C66.4331 135 68 133.433 68 131.5C68 129.567 66.4331 128 64.5 128C62.5669 128 61 129.567 61 131.5C61 133.433 62.5669 135 64.5 135Z" fill="#C0D3FB"/>
<path d="M68 147.5C68 149.433 66.4331 151 64.5 151C62.5669 151 61 149.433 61 147.5C61 145.567 62.5669 144 64.5 144C66.4331 144 68 145.567 68 147.5Z" fill="#C0D3FB"/>
<path d="M64.5 167C66.4331 167 68 165.433 68 163.5C68 161.567 66.4331 160 64.5 160C62.5669 160 61 161.567 61 163.5C61 165.433 62.5669 167 64.5 167Z" fill="#C0D3FB"/>
<path d="M68 179.5C68 181.433 66.4331 183 64.5 183C62.5669 183 61 181.433 61 179.5C61 177.567 62.5669 176 64.5 176C66.4331 176 68 177.567 68 179.5Z" fill="#C0D3FB"/>
<path d="M64.5 199C66.4331 199 68 197.433 68 195.5C68 193.567 66.4331 192 64.5 192C62.5669 192 61 193.567 61 195.5C61 197.433 62.5669 199 64.5 199Z" fill="#C0D3FB"/>
<path d="M85 115.5C85 117.433 83.4331 119 81.5 119C79.5669 119 78 117.433 78 115.5C78 113.567 79.5669 112 81.5 112C83.4331 112 85 113.567 85 115.5Z" fill="#C0D3FB"/>
<path d="M81.5 135C83.4331 135 85 133.433 85 131.5C85 129.567 83.4331 128 81.5 128C79.5669 128 78 129.567 78 131.5C78 133.433 79.5669 135 81.5 135Z" fill="#C0D3FB"/>
<path d="M85 147.5C85 149.433 83.4331 151 81.5 151C79.5669 151 78 149.433 78 147.5C78 145.567 79.5669 144 81.5 144C83.4331 144 85 145.567 85 147.5Z" fill="#C0D3FB"/>
<path d="M81.5 167C83.4331 167 85 165.433 85 163.5C85 161.567 83.4331 160 81.5 160C79.5669 160 78 161.567 78 163.5C78 165.433 79.5669 167 81.5 167Z" fill="#C0D3FB"/>
<path d="M85 179.5C85 181.433 83.4331 183 81.5 183C79.5669 183 78 181.433 78 179.5C78 177.567 79.5669 176 81.5 176C83.4331 176 85 177.567 85 179.5Z" fill="#C0D3FB"/>
<path d="M81.5 199C83.4331 199 85 197.433 85 195.5C85 193.567 83.4331 192 81.5 192C79.5669 192 78 193.567 78 195.5C78 197.433 79.5669 199 81.5 199Z" fill="#C0D3FB"/>
<path d="M30.5 215C32.4331 215 34 213.433 34 211.5C34 209.567 32.4331 208 30.5 208C28.5669 208 27 209.567 27 211.5C27 213.433 28.5669 215 30.5 215Z" fill="#C0D3FB"/>
<path d="M51 211.5C51 213.433 49.4331 215 47.5 215C45.5669 215 44 213.433 44 211.5C44 209.567 45.5669 208 47.5 208C49.4331 208 51 209.567 51 211.5Z" fill="#C0D3FB"/>
<path d="M64.5 215C66.4331 215 68 213.433 68 211.5C68 209.567 66.4331 208 64.5 208C62.5669 208 61 209.567 61 211.5C61 213.433 62.5669 215 64.5 215Z" fill="#C0D3FB"/>
<path d="M85 211.5C85 213.433 83.4331 215 81.5 215C79.5669 215 78 213.433 78 211.5C78 209.567 79.5669 208 81.5 208C83.4331 208 85 209.567 85 211.5Z" fill="#C0D3FB"/>
<path d="M-34 227.5C-34 229.433 -35.5669 231 -37.5 231C-39.4331 231 -41 229.433 -41 227.5C-41 225.567 -39.4331 224 -37.5 224C-35.5669 224 -34 225.567 -34 227.5Z" fill="#C0D3FB"/>
<path d="M-34 243.5C-34 245.433 -35.5669 247 -37.5 247C-39.4331 247 -41 245.433 -41 243.5C-41 241.567 -39.4331 240 -37.5 240C-35.5669 240 -34 241.567 -34 243.5Z" fill="#C0D3FB"/>
<path d="M-37.5 263C-35.5669 263 -34 261.433 -34 259.5C-34 257.567 -35.5669 256 -37.5 256C-39.4331 256 -41 257.567 -41 259.5C-41 261.433 -39.4331 263 -37.5 263Z" fill="#C0D3FB"/>
<path d="M-34 275.5C-34 277.433 -35.5669 279 -37.5 279C-39.4331 279 -41 277.433 -41 275.5C-41 273.567 -39.4331 272 -37.5 272C-35.5669 272 -34 273.567 -34 275.5Z" fill="#C0D3FB"/>
<path d="M-37.5 295C-35.5669 295 -34 293.433 -34 291.5C-34 289.567 -35.5669 288 -37.5 288C-39.4331 288 -41 289.567 -41 291.5C-41 293.433 -39.4331 295 -37.5 295Z" fill="#C0D3FB"/>
<path d="M-34 307.5C-34 309.433 -35.5669 311 -37.5 311C-39.4331 311 -41 309.433 -41 307.5C-41 305.567 -39.4331 304 -37.5 304C-35.5669 304 -34 305.567 -34 307.5Z" fill="#C0D3FB"/>
<path d="M-20.5 231C-18.5669 231 -17 229.433 -17 227.5C-17 225.567 -18.5669 224 -20.5 224C-22.4331 224 -24 225.567 -24 227.5C-24 229.433 -22.4331 231 -20.5 231Z" fill="#C0D3FB"/>
<path d="M-17 243.5C-17 245.433 -18.5669 247 -20.5 247C-22.4331 247 -24 245.433 -24 243.5C-24 241.567 -22.4331 240 -20.5 240C-18.5669 240 -17 241.567 -17 243.5Z" fill="#C0D3FB"/>
<path d="M-20.5 263C-18.5669 263 -17 261.433 -17 259.5C-17 257.567 -18.5669 256 -20.5 256C-22.4331 256 -24 257.567 -24 259.5C-24 261.433 -22.4331 263 -20.5 263Z" fill="#C0D3FB"/>
<path d="M-17 275.5C-17 277.433 -18.5669 279 -20.5 279C-22.4331 279 -24 277.433 -24 275.5C-24 273.567 -22.4331 272 -20.5 272C-18.5669 272 -17 273.567 -17 275.5Z" fill="#C0D3FB"/>
<path d="M-20.5 295C-18.5669 295 -17 293.433 -17 291.5C-17 289.567 -18.5669 288 -20.5 288C-22.4331 288 -24 289.567 -24 291.5C-24 293.433 -22.4331 295 -20.5 295Z" fill="#C0D3FB"/>
<path d="M-17 307.5C-17 309.433 -18.5669 311 -20.5 311C-22.4331 311 -24 309.433 -24 307.5C-24 305.567 -22.4331 304 -20.5 304C-18.5669 304 -17 305.567 -17 307.5Z" fill="#C0D3FB"/>
<path d="M-3.5 231C-1.56689 231 0 229.433 0 227.5C0 225.567 -1.56689 224 -3.5 224C-5.43311 224 -7 225.567 -7 227.5C-7 229.433 -5.43311 231 -3.5 231Z" fill="#C0D3FB"/>
<path d="M0 243.5C0 245.433 -1.56689 247 -3.5 247C-5.43311 247 -7 245.433 -7 243.5C-7 241.567 -5.43311 240 -3.5 240C-1.56689 240 0 241.567 0 243.5Z" fill="#C0D3FB"/>
<path d="M-3.5 263C-1.56689 263 0 261.433 0 259.5C0 257.567 -1.56689 256 -3.5 256C-5.43311 256 -7 257.567 -7 259.5C-7 261.433 -5.43311 263 -3.5 263Z" fill="#C0D3FB"/>
<path d="M0 275.5C0 277.433 -1.56689 279 -3.5 279C-5.43311 279 -7 277.433 -7 275.5C-7 273.567 -5.43311 272 -3.5 272C-1.56689 272 0 273.567 0 275.5Z" fill="#C0D3FB"/>
<path d="M-3.5 295C-1.56689 295 0 293.433 0 291.5C0 289.567 -1.56689 288 -3.5 288C-5.43311 288 -7 289.567 -7 291.5C-7 293.433 -5.43311 295 -3.5 295Z" fill="#C0D3FB"/>
<path d="M0 307.5C0 309.433 -1.56689 311 -3.5 311C-5.43311 311 -7 309.433 -7 307.5C-7 305.567 -5.43311 304 -3.5 304C-1.56689 304 0 305.567 0 307.5Z" fill="#C0D3FB"/>
<path d="M13.5 231C15.4331 231 17 229.433 17 227.5C17 225.567 15.4331 224 13.5 224C11.5669 224 10 225.567 10 227.5C10 229.433 11.5669 231 13.5 231Z" fill="#C0D3FB"/>
<path d="M17 243.5C17 245.433 15.4331 247 13.5 247C11.5669 247 10 245.433 10 243.5C10 241.567 11.5669 240 13.5 240C15.4331 240 17 241.567 17 243.5Z" fill="#C0D3FB"/>
<path d="M13.5 263C15.4331 263 17 261.433 17 259.5C17 257.567 15.4331 256 13.5 256C11.5669 256 10 257.567 10 259.5C10 261.433 11.5669 263 13.5 263Z" fill="#C0D3FB"/>
<path d="M17 275.5C17 277.433 15.4331 279 13.5 279C11.5669 279 10 277.433 10 275.5C10 273.567 11.5669 272 13.5 272C15.4331 272 17 273.567 17 275.5Z" fill="#C0D3FB"/>
<path d="M13.5 295C15.4331 295 17 293.433 17 291.5C17 289.567 15.4331 288 13.5 288C11.5669 288 10 289.567 10 291.5C10 293.433 11.5669 295 13.5 295Z" fill="#C0D3FB"/>
<path d="M17 307.5C17 309.433 15.4331 311 13.5 311C11.5669 311 10 309.433 10 307.5C10 305.567 11.5669 304 13.5 304C15.4331 304 17 305.567 17 307.5Z" fill="#C0D3FB"/>
<path d="M-37.5 327C-35.5669 327 -34 325.433 -34 323.5C-34 321.567 -35.5669 320 -37.5 320C-39.4331 320 -41 321.567 -41 323.5C-41 325.433 -39.4331 327 -37.5 327Z" fill="#C0D3FB"/>
<path d="M-17 323.5C-17 325.433 -18.5669 327 -20.5 327C-22.4331 327 -24 325.433 -24 323.5C-24 321.567 -22.4331 320 -20.5 320C-18.5669 320 -17 321.567 -17 323.5Z" fill="#C0D3FB"/>
<path d="M-3.5 327C-1.56689 327 0 325.433 0 323.5C0 321.567 -1.56689 320 -3.5 320C-5.43311 320 -7 321.567 -7 323.5C-7 325.433 -5.43311 327 -3.5 327Z" fill="#C0D3FB"/>
<path d="M17 323.5C17 325.433 15.4331 327 13.5 327C11.5669 327 10 325.433 10 323.5C10 321.567 11.5669 320 13.5 320C15.4331 320 17 321.567 17 323.5Z" fill="#C0D3FB"/>
<path d="M34 227.5C34 229.433 32.4331 231 30.5 231C28.5669 231 27 229.433 27 227.5C27 225.567 28.5669 224 30.5 224C32.4331 224 34 225.567 34 227.5Z" fill="#C0D3FB"/>
<path d="M30.5 247C32.4331 247 34 245.433 34 243.5C34 241.567 32.4331 240 30.5 240C28.5669 240 27 241.567 27 243.5C27 245.433 28.5669 247 30.5 247Z" fill="#C0D3FB"/>
<path d="M34 259.5C34 261.433 32.4331 263 30.5 263C28.5669 263 27 261.433 27 259.5C27 257.567 28.5669 256 30.5 256C32.4331 256 34 257.567 34 259.5Z" fill="#C0D3FB"/>
<path d="M30.5 279C32.4331 279 34 277.433 34 275.5C34 273.567 32.4331 272 30.5 272C28.5669 272 27 273.567 27 275.5C27 277.433 28.5669 279 30.5 279Z" fill="#C0D3FB"/>
<path d="M34 291.5C34 293.433 32.4331 295 30.5 295C28.5669 295 27 293.433 27 291.5C27 289.567 28.5669 288 30.5 288C32.4331 288 34 289.567 34 291.5Z" fill="#C0D3FB"/>
<path d="M30.5 311C32.4331 311 34 309.433 34 307.5C34 305.567 32.4331 304 30.5 304C28.5669 304 27 305.567 27 307.5C27 309.433 28.5669 311 30.5 311Z" fill="#C0D3FB"/>
<path d="M51 227.5C51 229.433 49.4331 231 47.5 231C45.5669 231 44 229.433 44 227.5C44 225.567 45.5669 224 47.5 224C49.4331 224 51 225.567 51 227.5Z" fill="#C0D3FB"/>
<path d="M47.5 247C49.4331 247 51 245.433 51 243.5C51 241.567 49.4331 240 47.5 240C45.5669 240 44 241.567 44 243.5C44 245.433 45.5669 247 47.5 247Z" fill="#C0D3FB"/>
<path d="M51 259.5C51 261.433 49.4331 263 47.5 263C45.5669 263 44 261.433 44 259.5C44 257.567 45.5669 256 47.5 256C49.4331 256 51 257.567 51 259.5Z" fill="#C0D3FB"/>
<path d="M47.5 279C49.4331 279 51 277.433 51 275.5C51 273.567 49.4331 272 47.5 272C45.5669 272 44 273.567 44 275.5C44 277.433 45.5669 279 47.5 279Z" fill="#C0D3FB"/>
<path d="M51 291.5C51 293.433 49.4331 295 47.5 295C45.5669 295 44 293.433 44 291.5C44 289.567 45.5669 288 47.5 288C49.4331 288 51 289.567 51 291.5Z" fill="#C0D3FB"/>
<path d="M47.5 311C49.4331 311 51 309.433 51 307.5C51 305.567 49.4331 304 47.5 304C45.5669 304 44 305.567 44 307.5C44 309.433 45.5669 311 47.5 311Z" fill="#C0D3FB"/>
<path d="M68 227.5C68 229.433 66.4331 231 64.5 231C62.5669 231 61 229.433 61 227.5C61 225.567 62.5669 224 64.5 224C66.4331 224 68 225.567 68 227.5Z" fill="#C0D3FB"/>
<path d="M64.5 247C66.4331 247 68 245.433 68 243.5C68 241.567 66.4331 240 64.5 240C62.5669 240 61 241.567 61 243.5C61 245.433 62.5669 247 64.5 247Z" fill="#C0D3FB"/>
<path d="M68 259.5C68 261.433 66.4331 263 64.5 263C62.5669 263 61 261.433 61 259.5C61 257.567 62.5669 256 64.5 256C66.4331 256 68 257.567 68 259.5Z" fill="#C0D3FB"/>
<path d="M64.5 279C66.4331 279 68 277.433 68 275.5C68 273.567 66.4331 272 64.5 272C62.5669 272 61 273.567 61 275.5C61 277.433 62.5669 279 64.5 279Z" fill="#C0D3FB"/>
<path d="M68 291.5C68 293.433 66.4331 295 64.5 295C62.5669 295 61 293.433 61 291.5C61 289.567 62.5669 288 64.5 288C66.4331 288 68 289.567 68 291.5Z" fill="#C0D3FB"/>
<path d="M64.5 311C66.4331 311 68 309.433 68 307.5C68 305.567 66.4331 304 64.5 304C62.5669 304 61 305.567 61 307.5C61 309.433 62.5669 311 64.5 311Z" fill="#C0D3FB"/>
<path d="M85 227.5C85 229.433 83.4331 231 81.5 231C79.5669 231 78 229.433 78 227.5C78 225.567 79.5669 224 81.5 224C83.4331 224 85 225.567 85 227.5Z" fill="#C0D3FB"/>
<path d="M81.5 247C83.4331 247 85 245.433 85 243.5C85 241.567 83.4331 240 81.5 240C79.5669 240 78 241.567 78 243.5C78 245.433 79.5669 247 81.5 247Z" fill="#C0D3FB"/>
<path d="M85 259.5C85 261.433 83.4331 263 81.5 263C79.5669 263 78 261.433 78 259.5C78 257.567 79.5669 256 81.5 256C83.4331 256 85 257.567 85 259.5Z" fill="#C0D3FB"/>
<path d="M81.5 279C83.4331 279 85 277.433 85 275.5C85 273.567 83.4331 272 81.5 272C79.5669 272 78 273.567 78 275.5C78 277.433 79.5669 279 81.5 279Z" fill="#C0D3FB"/>
<path d="M85 291.5C85 293.433 83.4331 295 81.5 295C79.5669 295 78 293.433 78 291.5C78 289.567 79.5669 288 81.5 288C83.4331 288 85 289.567 85 291.5Z" fill="#C0D3FB"/>
<path d="M81.5 311C83.4331 311 85 309.433 85 307.5C85 305.567 83.4331 304 81.5 304C79.5669 304 78 305.567 78 307.5C78 309.433 79.5669 311 81.5 311Z" fill="#C0D3FB"/>
<path d="M30.5 327C32.4331 327 34 325.433 34 323.5C34 321.567 32.4331 320 30.5 320C28.5669 320 27 321.567 27 323.5C27 325.433 28.5669 327 30.5 327Z" fill="#C0D3FB"/>
<path d="M51 323.5C51 325.433 49.4331 327 47.5 327C45.5669 327 44 325.433 44 323.5C44 321.567 45.5669 320 47.5 320C49.4331 320 51 321.567 51 323.5Z" fill="#C0D3FB"/>
<path d="M64.5 327C66.4331 327 68 325.433 68 323.5C68 321.567 66.4331 320 64.5 320C62.5669 320 61 321.567 61 323.5C61 325.433 62.5669 327 64.5 327Z" fill="#C0D3FB"/>
<path d="M85 323.5C85 325.433 83.4331 327 81.5 327C79.5669 327 78 325.433 78 323.5C78 321.567 79.5669 320 81.5 320C83.4331 320 85 321.567 85 323.5Z" fill="#C0D3FB"/>
</svg>
