<?xml version="1.0" encoding="UTF-8"?>
<svg xmlns="http://www.w3.org/2000/svg" width="32" height="32" viewBox="0 0 32 32" fill="none">
  <g clip-path="url(#clip0_455_6776)">
    <path d="M5.00588 27.3444L23.4163 30.0863C24.3368 29.5758 25.2023 28.972 25.9993 28.2844L26.9944 27.3444C29.6669 24.5879 31.3128 20.8301 31.3128 16.6874C31.3128 8.23044 24.4571 1.37476 16.0001 1.37476C7.54319 1.37476 0.6875 8.23038 0.6875 16.6873C0.6875 20.83 2.33331 24.5878 5.00588 27.3444Z" fill="#49B1F7"></path>
    <path d="M26.9941 27.3444V18.4148C26.9941 18.14 26.7714 17.9172 26.4966 17.9172C26.2218 17.9172 25.999 18.14 25.999 18.4148V28.2845C26.3445 27.986 26.6765 27.6723 26.9941 27.3444Z" fill="#E80054"></path>
    <path d="M26.497 18.9124C26.4317 18.9124 26.367 18.8995 26.3066 18.8745C26.2462 18.8495 26.1914 18.8128 26.1452 18.7666C26.099 18.7204 26.0623 18.6656 26.0373 18.6052C26.0123 18.5449 25.9995 18.4802 25.9995 18.4148V6.6405C25.9995 6.50854 26.0519 6.38198 26.1452 6.28867C26.2385 6.19536 26.3651 6.14294 26.497 6.14294C26.629 6.14294 26.7555 6.19536 26.8489 6.28867C26.9422 6.38198 26.9946 6.50854 26.9946 6.6405V18.4148C26.9946 18.4802 26.9817 18.5449 26.9567 18.6052C26.9317 18.6656 26.8951 18.7205 26.8489 18.7667C26.8027 18.8129 26.7478 18.8495 26.6874 18.8745C26.6271 18.8995 26.5624 18.9124 26.497 18.9124ZM14.2113 8.81131C14.146 8.81131 14.0813 8.79844 14.0209 8.77344C13.9606 8.74843 13.9057 8.71178 13.8595 8.66558C13.8133 8.61938 13.7767 8.56453 13.7516 8.50416C13.7266 8.44379 13.7138 8.37909 13.7138 8.31375V6.6405C13.7137 2.97894 16.6926 0 20.3541 0C20.4861 0 20.6127 0.0524216 20.706 0.145733C20.7993 0.239044 20.8517 0.365601 20.8517 0.497562C20.8517 0.629524 20.7993 0.756081 20.706 0.849392C20.6127 0.942703 20.4861 0.995125 20.3541 0.995125C17.2413 0.995125 14.7089 3.52763 14.7089 6.64044V8.31369C14.7089 8.37904 14.6961 8.44375 14.6711 8.50413C14.6461 8.5645 14.6094 8.61936 14.5632 8.66558C14.517 8.71179 14.4621 8.74844 14.4018 8.77345C14.3414 8.79846 14.2767 8.81132 14.2113 8.81131ZM9.6709 7.33931H12.4905V11.3199H9.6709V7.33931Z" fill="#FF4155"></path>
    <path d="M15.9316 7.33936H18.7513V11.32H15.9316V7.33936Z" fill="#FF7186"></path>
    <path d="M22.0222 13.098L20.7345 12.5572C20.4596 12.4417 20.239 12.2257 20.1179 11.9532C20.0259 11.7462 19.8759 11.5704 19.686 11.4469C19.4961 11.3235 19.2745 11.2578 19.048 11.2578H12.3587C12.2324 11.3956 11.9776 11.7245 11.9794 12.1359C11.9806 12.4279 12.1101 12.7008 12.3647 12.9484C12.2145 13.1559 11.783 13.8092 11.5435 14.7593C11.2808 15.8014 11.2153 17.4047 12.3818 19.1459L11.001 21.8672C10.9488 21.9356 10.6154 22.3984 10.6941 22.9484C10.7435 23.2931 10.9434 23.5956 11.2884 23.8481L12.1194 29.5798L21.7369 30.8881C22.3125 30.6552 22.8733 30.3875 23.4163 30.0864V15.1956C23.4163 14.7475 23.284 14.3094 23.036 13.9363C22.788 13.5631 22.4353 13.2715 22.0222 13.098Z" fill="#DEEEFF"></path>
    <path d="M12.4902 11.2578H9.37417C9.14768 11.2578 8.92605 11.3235 8.73615 11.4469C8.54624 11.5704 8.39621 11.7462 8.30423 11.9532C8.18312 12.2257 7.9626 12.4417 7.68767 12.5572L6.39992 13.098C5.98682 13.2715 5.63416 13.5631 5.38615 13.9363C5.13815 14.3095 5.00585 14.7476 5.00586 15.1956V27.3445C5.52841 27.8835 6.08966 28.3836 6.68511 28.8407L6.68517 28.8406L12.216 29.5929L11.3754 23.7952C10.228 22.9873 11.0804 21.9175 11.0804 21.9175L12.4902 19.1391C10.2077 15.7898 12.4902 12.9372 12.4902 12.9372C11.5515 12.1046 12.4902 11.2578 12.4902 11.2578Z" fill="#BEC8F7"></path>
    <path d="M21.372 14.6461L20.0842 14.1053C19.7153 13.9508 19.3831 13.7203 19.1093 13.4288C18.9634 13.2734 18.7872 13.1496 18.5916 13.0651C18.396 12.9805 18.1851 12.9369 17.972 12.937H12.354C12.3577 12.9407 12.3609 12.9445 12.3647 12.9482C12.2145 13.1558 11.783 13.809 11.5435 14.7591C11.2808 15.8012 11.2153 17.4045 12.3818 19.1458L11.001 21.867C10.9488 21.9354 10.6154 22.3982 10.6941 22.9483C10.7435 23.2929 10.9434 23.5954 11.2884 23.8479L12.2077 30.1887C12.1192 30.2603 12.0373 30.3397 11.963 30.4259L20.0282 31.4633V31.4637C20.6087 31.3057 21.1792 31.1134 21.7369 30.8879V15.1954C21.737 15.0781 21.7024 14.9633 21.6374 14.8656C21.5725 14.7679 21.4802 14.6915 21.372 14.6461Z" fill="#FF4155"></path>
    <path d="M12.0418 16.6472C12.6748 16.6472 13.188 16.134 13.188 15.501C13.188 14.8679 12.6748 14.3547 12.0418 14.3547C11.4087 14.3547 10.8955 14.8679 10.8955 15.501C10.8955 16.134 11.4087 16.6472 12.0418 16.6472Z" fill="#E80054"></path>
    <path d="M12.0417 19.4571C12.9686 19.4571 13.72 18.7057 13.72 17.7787C13.72 16.8518 12.9686 16.1003 12.0417 16.1003C11.1147 16.1003 10.3633 16.8518 10.3633 17.7787C10.3633 18.7057 11.1147 19.4571 12.0417 19.4571Z" fill="#E80054"></path>
    <path d="M12.3082 30.2296L11.3753 23.795C10.228 22.9871 11.0804 21.9173 11.0804 21.9173L12.4902 19.1389C10.2077 15.7896 12.4902 12.937 12.4902 12.937H10.4501C10.2369 12.9369 10.0261 12.9805 9.83044 13.0651C9.63483 13.1497 9.45863 13.2735 9.31275 13.4288C9.03896 13.7204 8.70674 13.9509 8.33781 14.1053L7.05012 14.6461C6.94194 14.6916 6.84959 14.7679 6.78464 14.8656C6.7197 14.9633 6.68506 15.0781 6.68506 15.1954V28.8404C7.22083 29.2514 7.78311 29.6266 8.36825 29.9636L12.0758 30.4405C12.1985 30.308 12.3082 30.2296 12.3082 30.2296Z" fill="#E80054"></path>
    <path d="M11.0806 13.953C11.0152 13.953 10.9505 13.9401 10.8902 13.9151C10.8298 13.8901 10.7749 13.8534 10.7287 13.8072C10.6825 13.761 10.6459 13.7062 10.6209 13.6458C10.5959 13.5855 10.583 13.5208 10.583 13.4554V8.83204C10.583 8.70007 10.6354 8.57352 10.7287 8.4802C10.8221 8.38689 10.9486 8.33447 11.0806 8.33447C11.2125 8.33447 11.3391 8.38689 11.4324 8.4802C11.5257 8.57352 11.5781 8.70007 11.5781 8.83204V13.4554C11.5781 13.5208 11.5653 13.5855 11.5403 13.6458C11.5153 13.7062 11.4786 13.761 11.4324 13.8072C11.3862 13.8534 11.3313 13.8901 11.271 13.9151C11.2106 13.9401 11.1459 13.953 11.0806 13.953Z" fill="#E80054"></path>
    <path d="M11.0805 9.60239C10.737 9.60239 10.4585 9.32389 10.4585 8.98039V7.36858C10.4585 7.02508 10.7369 6.74658 11.0805 6.74658C11.424 6.74658 11.7025 7.02508 11.7025 7.36858V8.98039C11.7024 9.32389 11.424 9.60239 11.0805 9.60239Z" fill="#CC0053"></path>
    <path d="M17.3418 13.953C17.2765 13.953 17.2118 13.9401 17.1514 13.9151C17.091 13.8901 17.0362 13.8534 16.99 13.8072C16.9438 13.761 16.9071 13.7062 16.8821 13.6458C16.8571 13.5855 16.8442 13.5208 16.8442 13.4554V8.83204C16.8442 8.70007 16.8967 8.57352 16.99 8.4802C17.0833 8.38689 17.2098 8.33447 17.3418 8.33447C17.4738 8.33447 17.6003 8.38689 17.6936 8.4802C17.7869 8.57352 17.8394 8.70007 17.8394 8.83204V13.4554C17.8394 13.5208 17.8265 13.5855 17.8015 13.6458C17.7765 13.7062 17.7399 13.7611 17.6936 13.8073C17.6474 13.8535 17.5926 13.8901 17.5322 13.9151C17.4718 13.9401 17.4071 13.953 17.3418 13.953Z" fill="#FF4155"></path>
    <path d="M17.3417 9.60239C16.9982 9.60239 16.7197 9.32389 16.7197 8.98039V7.36858C16.7197 7.02508 16.9982 6.74658 17.3417 6.74658C17.6852 6.74658 17.9637 7.02508 17.9637 7.36858V8.98039C17.9637 9.32389 17.6853 9.60239 17.3417 9.60239Z" fill="#E80054"></path>
    <path d="M14.2114 14.0773C13.8679 14.0773 13.5894 13.7988 13.5894 13.4553V8.83196C13.5894 8.48846 13.8678 8.20996 14.2114 8.20996C14.5549 8.20996 14.8334 8.48846 14.8334 8.83196V13.4553C14.8333 13.7988 14.5549 14.0773 14.2114 14.0773Z" fill="#FF4155"></path>
    <path d="M14.211 10.2387C13.7817 10.2387 13.4336 9.89055 13.4336 9.46124V8.35849C13.4336 7.92912 13.7817 7.58105 14.211 7.58105C14.6404 7.58105 14.9885 7.92918 14.9885 8.35849V9.46124C14.9885 9.89062 14.6404 10.2387 14.211 10.2387Z" fill="#E80054"></path>
    <path d="M11.0385 21.793L11.001 21.867C10.9488 21.9354 10.6154 22.3982 10.6941 22.9483C10.7435 23.293 10.9434 23.5954 11.2884 23.848L12.2077 30.1887C12.0727 30.2968 11.6915 30.6397 11.654 31.0869C11.6456 31.1862 11.6552 31.2863 11.6824 31.3822C13.0519 31.784 14.5007 31.9999 16.0002 31.9999C17.3944 31.9999 18.7447 31.8125 20.0284 31.4633C20.0469 31.3852 20.0577 31.304 20.0577 31.2202V21.793H11.0385Z" fill="#DEEEFF"></path>
    <path d="M11.1438 21.793H8.36475V29.9632C9.44336 30.585 10.5942 31.0722 11.7914 31.4138C11.5546 30.7662 12.3086 30.2297 12.3086 30.2297L11.3757 23.7951C10.2284 22.9872 11.0807 21.9174 11.0807 21.9174L11.1438 21.793Z" fill="#BEC8F7"></path>
    <path d="M17.5708 26.4769C18.1999 25.7781 18.1432 24.7015 17.4444 24.0725C16.7455 23.4434 15.669 23.5 15.0399 24.1989C14.4108 24.8978 14.4674 25.9743 15.1663 26.6034C15.8652 27.2324 16.9417 27.1758 17.5708 26.4769Z" fill="#49B1F7"></path>
    <path d="M17.6352 25.3675C17.9462 25.015 17.9127 24.477 17.5602 24.166C17.2077 23.8549 16.6698 23.8884 16.3587 24.2409C16.0476 24.5934 16.0812 25.1313 16.4336 25.4424C16.7861 25.7535 17.3241 25.72 17.6352 25.3675Z" fill="#73C3F9"></path>
    <path d="M19.0049 19.1389H10.9561V21.9173H20.0576V20.1915C20.0576 19.6102 19.5863 19.1389 19.0049 19.1389Z" fill="#9BD8F9"></path>
    <path d="M11.0803 19.1389H9.41695C8.83557 19.1389 8.36426 19.6102 8.36426 20.1915V21.9173H11.0802L11.0803 19.1389Z" fill="#49B1F7"></path>
    <path d="M11.3755 24.7282H10.4426C10.3189 24.7282 10.2002 24.679 10.1127 24.5915C10.0252 24.504 9.97607 24.3854 9.97607 24.2617C9.97607 24.1379 10.0252 24.0193 10.1127 23.9318C10.2002 23.8443 10.3189 23.7952 10.4426 23.7952H11.3755C11.4992 23.7952 11.6179 23.8443 11.7054 23.9318C11.7929 24.0193 11.842 24.1379 11.842 24.2617C11.842 24.3854 11.7929 24.504 11.7054 24.5915C11.6179 24.679 11.4992 24.7282 11.3755 24.7282Z" fill="#A8B7EF"></path>
    <path d="M16.7788 29.3126H15.8459C15.7222 29.3126 15.6035 29.2635 15.516 29.176C15.4285 29.0885 15.3794 28.9699 15.3794 28.8461C15.3794 28.7224 15.4285 28.6038 15.516 28.5163C15.6035 28.4288 15.7222 28.3796 15.8459 28.3796H16.7788C16.9026 28.3796 17.0212 28.4288 17.1087 28.5163C17.1962 28.6038 17.2453 28.7224 17.2453 28.8461C17.2453 28.9699 17.1962 29.0885 17.1087 29.176C17.0212 29.2635 16.9026 29.3126 16.7788 29.3126Z" fill="#FF4155"></path>
    <path d="M12.3085 26.5619H10.4426C10.3189 26.5619 10.2002 26.5128 10.1127 26.4253C10.0252 26.3378 9.97607 26.2191 9.97607 26.0954C9.97607 25.9717 10.0252 25.853 10.1127 25.7655C10.2002 25.6781 10.3189 25.6289 10.4426 25.6289H12.3085C12.4322 25.6289 12.5509 25.6781 12.6384 25.7655C12.7259 25.853 12.775 25.9717 12.775 26.0954C12.775 26.2191 12.7259 26.3378 12.6384 26.4253C12.5509 26.5128 12.4322 26.5619 12.3085 26.5619ZM12.3085 28.3958H10.4426C10.3189 28.3958 10.2002 28.3467 10.1127 28.2592C10.0252 28.1717 9.97607 28.0531 9.97607 27.9293C9.97607 27.8056 10.0252 27.687 10.1127 27.5995C10.2002 27.512 10.3189 27.4628 10.4426 27.4628H12.3085C12.4322 27.4628 12.5509 27.512 12.6384 27.5995C12.7259 27.687 12.775 27.8056 12.775 27.9293C12.775 28.0531 12.7259 28.1717 12.6384 28.2592C12.5509 28.3467 12.4322 28.3958 12.3085 28.3958ZM12.3085 30.2297H10.4426C10.3189 30.2297 10.2002 30.1806 10.1127 30.0931C10.0252 30.0056 9.97607 29.8869 9.97607 29.7632C9.97607 29.6395 10.0252 29.5208 10.1127 29.4334C10.2002 29.3459 10.3189 29.2967 10.4426 29.2967H12.3085C12.4322 29.2967 12.5509 29.3459 12.6384 29.4334C12.7259 29.5208 12.775 29.6395 12.775 29.7632C12.775 29.8869 12.7259 30.0056 12.6384 30.0931C12.5509 30.1806 12.4322 30.2297 12.3085 30.2297Z" fill="#A8B7EF"></path>
    <path d="M17.3415 4.60254C16.5628 4.60254 15.9316 5.23373 15.9316 6.01235V7.4636H18.7513V6.01235C18.7513 5.23373 18.1201 4.60254 17.3415 4.60254Z" fill="#DEEEFF"></path>
    <path d="M11.0807 4.60254C10.3021 4.60254 9.6709 5.23373 9.6709 6.01235V7.4636H12.4905V6.01235C12.4905 5.23373 11.8593 4.60254 11.0807 4.60254Z" fill="#BEC8F7"></path>
    <path d="M24.4409 2.55212C24.3188 2.55225 24.201 2.50729 24.1099 2.42587C23.0763 1.50359 21.7393 0.994257 20.354 0.995125C20.222 0.995125 20.0955 0.942703 20.0022 0.849392C19.9089 0.756081 19.8564 0.629524 19.8564 0.497562C19.8564 0.365601 19.9089 0.239044 20.0022 0.145733C20.0955 0.0524216 20.222 0 20.354 0C21.9861 0 23.5553 0.59775 24.7723 1.68319C24.8475 1.75034 24.9006 1.83875 24.9244 1.93671C24.9483 2.03467 24.9418 2.13757 24.9059 2.23178C24.87 2.32598 24.8063 2.40706 24.7232 2.46426C24.6402 2.52147 24.5418 2.55211 24.4409 2.55212Z" fill="#FF7186"></path>
    <path d="M26.4966 7.13798C26.4313 7.13798 26.3666 7.12511 26.3062 7.1001C26.2458 7.0751 26.191 7.03845 26.1448 6.99224C26.0986 6.94604 26.0619 6.89119 26.0369 6.83082C26.0119 6.77045 25.999 6.70575 25.999 6.64041C25.999 5.03279 25.3104 3.49666 24.1097 2.42579C24.0113 2.33794 23.9517 2.21458 23.9442 2.08283C23.9366 1.95108 23.9817 1.82173 24.0695 1.72323C24.1574 1.62476 24.2808 1.56522 24.4125 1.5577C24.5443 1.55017 24.6736 1.59528 24.7721 1.6831C26.1843 2.9426 26.9942 4.74948 26.9942 6.64041C26.9942 6.77238 26.9418 6.89892 26.8484 6.99223C26.7551 7.08553 26.6286 7.13796 26.4966 7.13798Z" fill="#F9A0B1"></path>
    <path d="M18.6382 16.4243C18.9357 16.1269 18.9357 15.6446 18.6382 15.3471C18.3408 15.0497 17.8585 15.0497 17.5611 15.3471C17.2636 15.6446 17.2636 16.1269 17.5611 16.4243C17.8585 16.7218 18.3408 16.7218 18.6382 16.4243Z" fill="#FF7186"></path>
  </g>
  <defs>
    <clipPath id="clip0_455_6776">
      <rect width="32" height="32" fill="white"></rect>
    </clipPath>
  </defs>
</svg>
