<?xml version="1.0" encoding="UTF-8"?>
<svg xmlns="http://www.w3.org/2000/svg" width="32" height="32" viewBox="0 0 32 32" fill="none">
  <g clip-path="url(#clip0_456_7195)">
    <path d="M32 16C32 17.4439 31.8086 18.8434 31.4501 20.1737C31.4039 20.3452 31.3547 20.5159 31.3026 20.6857C30.9983 21.681 30.5967 22.6439 30.1036 23.5604C30.0028 23.7492 29.8981 23.9358 29.7894 24.1201C29.2752 24.9909 28.6798 25.8111 28.0112 26.5697C27.7392 26.8789 27.4556 27.1776 27.1609 27.4651C27.1217 27.503 27.0819 27.5409 27.042 27.5788C26.3105 28.2766 25.5148 28.9039 24.6655 29.4524C24.5151 29.5492 24.3631 29.6437 24.2097 29.7358C23.8024 29.9802 23.3842 30.2059 22.9564 30.4124C22.3915 30.6858 21.8107 30.9255 21.2173 31.1301C21.1664 31.1477 21.1154 31.1647 21.0645 31.1816C20.5276 31.3605 19.9815 31.5107 19.4286 31.6316H19.4279C18.3018 31.877 17.1526 32.0006 16 32C15.4384 32 14.8833 31.9713 14.3366 31.9144C11.3698 31.6081 8.64325 30.4914 6.383 28.7882C6.07756 28.558 5.78045 28.3168 5.49225 28.0653C4.4742 27.1786 3.57196 26.1671 2.80688 25.0547C2.13513 24.0781 1.57417 23.0298 1.13438 21.9291C0.816022 21.1314 0.562901 20.3091 0.377502 19.4704C0.126033 18.3307 -0.00054653 17.1671 1.77365e-06 16C1.77365e-06 7.16344 7.16344 0 16 0C24.6191 0 31.6467 6.81538 31.9869 15.3509C31.9954 15.5664 32 15.7825 32 16Z" fill="#FFD255"></path>
    <path d="M28.7241 12.7241C28.7241 15.6589 27.7306 18.3616 26.0614 20.5143C23.7337 23.5162 20.0924 25.4481 16 25.4481C11.9076 25.4481 8.26638 23.5161 5.93863 20.5143C4.26944 18.3616 3.27588 15.6589 3.27588 12.7241C3.276 5.69675 8.97275 0 16.0001 0C23.0274 0 28.7241 5.69675 28.7241 12.7241Z" fill="#FFDC83"></path>
    <path d="M9.13155 6.10606C6.14774 4.15012 3.30455 8.23631 3.9953 11.5555C4.68605 14.8747 7.9368 17.0056 11.256 16.3148C14.5752 15.6241 16.7061 12.3734 16.0153 9.05412C15.3245 5.73493 11.0874 3.12218 9.13155 6.10606Z" fill="#F74C83"></path>
    <path d="M11.256 16.3148C7.93646 17.0056 4.68609 14.8751 3.99534 11.5555C3.42621 8.82058 5.25527 5.56589 7.58627 5.59789C6.6219 6.20577 6.1524 8.7127 6.62984 11.0073C7.32059 14.3268 9.39202 16.7028 11.256 16.3148Z" fill="#E21C59"></path>
    <path d="M32.0001 16.0001C32.0001 17.444 31.8087 18.8435 31.4502 20.1738C31.404 20.3453 31.3548 20.516 31.3027 20.6858C30.8312 20.5748 30.3838 20.3344 30.0161 19.9668C29.5772 19.5279 29.3206 18.9767 29.2468 18.4059C29.1417 17.602 29.3983 16.7603 30.0161 16.1424C30.5588 15.5998 31.2752 15.3359 31.987 15.3509C31.9955 15.5664 32.0001 15.7826 32.0001 16.0001Z" fill="#4BC2E2"></path>
    <path d="M31.4502 20.1736C31.0306 21.7301 30.3768 23.2139 29.5113 24.5739C28.7654 24.619 28.006 24.3565 27.4365 23.787C26.9976 23.3481 26.741 22.7969 26.6672 22.2262C26.5621 21.4222 26.8187 20.5805 27.4365 19.9627C28.4925 18.9067 30.2042 18.9067 31.2602 19.9627C31.3273 20.0295 31.3907 20.0999 31.4502 20.1736Z" fill="#72DAFE"></path>
    <path d="M30.1035 23.5605C30.0027 23.7493 29.898 23.9359 29.7893 24.1202C29.6992 24.2731 29.6065 24.4244 29.5112 24.5741C28.766 24.6192 28.0058 24.3567 27.4357 23.7872C26.3797 22.7312 26.3797 21.0189 27.4363 19.9629C27.6061 19.7927 27.7978 19.646 28.0065 19.5266C27.4155 20.5597 27.5604 21.8985 28.4427 22.7808C28.9071 23.2451 29.4974 23.505 30.1035 23.5605Z" fill="#4BC2E2"></path>
    <path d="M30.3099 21.5772C30.6768 21.5772 30.9741 21.2798 30.9741 20.913C30.9741 20.5461 30.6768 20.2488 30.3099 20.2488C29.9431 20.2488 29.6458 20.5461 29.6458 20.913C29.6458 21.2798 29.9431 21.5772 30.3099 21.5772Z" fill="#9BE5F9"></path>
    <path d="M21.6935 5.87131C19.4212 3.59891 17.0265 2.3094 16.3447 2.99113C15.663 3.67285 16.9524 6.06764 19.2247 8.34004C21.497 10.6124 23.8918 11.9019 24.5735 11.2202C25.2553 10.5385 23.9658 8.14371 21.6935 5.87131Z" fill="#50B566"></path>
    <path d="M23.3286 5.87116C21.0563 8.14356 19.7669 10.5384 20.4486 11.2201C21.1304 11.9018 23.5251 10.6123 25.7975 8.33989C28.0698 6.06749 29.3592 3.6727 28.6775 2.99098C27.9957 2.30925 25.601 3.59876 23.3286 5.87116Z" fill="#63D38E"></path>
    <path d="M24.2566 5.81887C24.2566 9.03281 23.475 11.6377 22.5109 11.6377C21.5467 11.6377 20.7651 9.03275 20.7651 5.81887C20.765 2.605 21.5466 0 22.5108 0C23.4749 0 24.2566 2.605 24.2566 5.81887Z" fill="#63D38E"></path>
    <path d="M22.5109 0V11.6378C21.5467 11.6378 20.7651 9.03281 20.7651 5.81894C20.7651 2.60506 21.5467 0 22.5109 0Z" fill="#50B566"></path>
    <path d="M25.9226 24.8438C23.7013 25.5117 21.3223 25.5114 19.101 24.8441C17.522 23.1117 15.9693 21.6067 14.8284 20.0417C13.7367 18.5449 13.022 16.9935 13.022 15.1366C13.022 9.89606 17.2703 7.36206 22.5109 7.36206C27.7518 7.36244 32.0002 9.89644 32.0002 15.137C32.0002 16.9373 31.3282 18.4508 30.292 19.9056C29.1433 21.5195 27.5469 23.0613 25.9226 24.8438Z" fill="#F74C83"></path>
    <path d="M20.031 25.0824L20.0693 25.0905C22.004 25.4972 24.0208 25.4156 25.9222 24.8439C27.5465 23.0613 29.1428 21.5195 30.2916 19.9057C27.813 21.6109 25.5176 22.2576 23.5222 22.3308C19.4598 22.4799 16.0576 19.268 16.0322 15.2032C16.032 15.1812 16.032 15.1592 16.032 15.1371C16.0317 9.89624 18.9328 7.36255 22.5109 7.36255C17.27 7.36224 13.0217 9.89624 13.022 15.1371C13.0217 18.9337 16.0101 21.4537 19.1 24.8443C19.1003 24.844 19.1006 24.8443 19.1006 24.8443C19.2134 24.878 19.3267 24.91 19.4405 24.9404C19.6363 24.9927 19.8332 25.04 20.031 25.0824Z" fill="#E21C59"></path>
    <path d="M16.9137 11.7996C17.4558 11.7996 17.8953 11.3601 17.8953 10.818C17.8953 10.2759 17.4558 9.83643 16.9137 9.83643C16.3716 9.83643 15.9321 10.2759 15.9321 10.818C15.9321 11.3601 16.3716 11.7996 16.9137 11.7996Z" fill="#E21C59"></path>
    <path d="M16.9136 11.1758C17.1113 11.1758 17.2715 11.0156 17.2715 10.8179C17.2715 10.6202 17.1113 10.46 16.9136 10.46C16.7159 10.46 16.5557 10.6202 16.5557 10.8179C16.5557 11.0156 16.7159 11.1758 16.9136 11.1758Z" fill="#FFF5C5"></path>
    <path d="M24.6591 11.7996C25.2012 11.7996 25.6406 11.3601 25.6406 10.818C25.6406 10.2759 25.2012 9.83643 24.6591 9.83643C24.1169 9.83643 23.6775 10.2759 23.6775 10.818C23.6775 11.3601 24.1169 11.7996 24.6591 11.7996Z" fill="#E21C59"></path>
    <path d="M24.659 11.1758C24.8566 11.1758 25.0169 11.0156 25.0169 10.8179C25.0169 10.6202 24.8566 10.46 24.659 10.46C24.4613 10.46 24.301 10.6202 24.301 10.8179C24.301 11.0156 24.4613 11.1758 24.659 11.1758Z" fill="#FFF5C5"></path>
    <path d="M20.7862 13.47C21.3284 13.47 21.7678 13.0305 21.7678 12.4884C21.7678 11.9463 21.3284 11.5068 20.7862 11.5068C20.2441 11.5068 19.8047 11.9463 19.8047 12.4884C19.8047 13.0305 20.2441 13.47 20.7862 13.47Z" fill="#E21C59"></path>
    <path d="M20.7862 12.8465C20.9838 12.8465 21.1441 12.6862 21.1441 12.4886C21.1441 12.2909 20.9838 12.1306 20.7862 12.1306C20.5885 12.1306 20.4282 12.2909 20.4282 12.4886C20.4282 12.6862 20.5885 12.8465 20.7862 12.8465Z" fill="#FFF5C5"></path>
    <path d="M28.5316 13.47C29.0737 13.47 29.5132 13.0305 29.5132 12.4884C29.5132 11.9463 29.0737 11.5068 28.5316 11.5068C27.9895 11.5068 27.55 11.9463 27.55 12.4884C27.55 13.0305 27.9895 13.47 28.5316 13.47Z" fill="#E21C59"></path>
    <path d="M28.5315 12.8465C28.7292 12.8465 28.8895 12.6862 28.8895 12.4886C28.8895 12.2909 28.7292 12.1306 28.5315 12.1306C28.3338 12.1306 28.1736 12.2909 28.1736 12.4886C28.1736 12.6862 28.3338 12.8465 28.5315 12.8465Z" fill="#FFF5C5"></path>
    <path d="M16.9137 15.9224C17.4558 15.9224 17.8953 15.4829 17.8953 14.9408C17.8953 14.3987 17.4558 13.9592 16.9137 13.9592C16.3716 13.9592 15.9321 14.3987 15.9321 14.9408C15.9321 15.4829 16.3716 15.9224 16.9137 15.9224Z" fill="#E21C59"></path>
    <path d="M16.9136 15.2986C17.1113 15.2986 17.2715 15.1384 17.2715 14.9407C17.2715 14.743 17.1113 14.5828 16.9136 14.5828C16.7159 14.5828 16.5557 14.743 16.5557 14.9407C16.5557 15.1384 16.7159 15.2986 16.9136 15.2986Z" fill="#FFF5C5"></path>
    <path d="M24.6591 15.9224C25.2012 15.9224 25.6406 15.4829 25.6406 14.9408C25.6406 14.3987 25.2012 13.9592 24.6591 13.9592C24.1169 13.9592 23.6775 14.3987 23.6775 14.9408C23.6775 15.4829 24.1169 15.9224 24.6591 15.9224Z" fill="#E21C59"></path>
    <path d="M24.659 15.2986C24.8566 15.2986 25.0169 15.1384 25.0169 14.9407C25.0169 14.743 24.8566 14.5828 24.659 14.5828C24.4613 14.5828 24.301 14.743 24.301 14.9407C24.301 15.1384 24.4613 15.2986 24.659 15.2986Z" fill="#FFF5C5"></path>
    <path d="M20.7862 17.5928C21.3284 17.5928 21.7678 17.1533 21.7678 16.6112C21.7678 16.0691 21.3284 15.6296 20.7862 15.6296C20.2441 15.6296 19.8047 16.0691 19.8047 16.6112C19.8047 17.1533 20.2441 17.5928 20.7862 17.5928Z" fill="#E21C59"></path>
    <path d="M20.7862 16.9693C20.9838 16.9693 21.1441 16.809 21.1441 16.6114C21.1441 16.4137 20.9838 16.2534 20.7862 16.2534C20.5885 16.2534 20.4282 16.4137 20.4282 16.6114C20.4282 16.809 20.5885 16.9693 20.7862 16.9693Z" fill="#FFF5C5"></path>
    <path d="M28.5316 17.5928C29.0737 17.5928 29.5132 17.1533 29.5132 16.6112C29.5132 16.0691 29.0737 15.6296 28.5316 15.6296C27.9895 15.6296 27.55 16.0691 27.55 16.6112C27.55 17.1533 27.9895 17.5928 28.5316 17.5928Z" fill="#E21C59"></path>
    <path d="M28.5315 16.9693C28.7292 16.9693 28.8895 16.809 28.8895 16.6114C28.8895 16.4137 28.7292 16.2534 28.5315 16.2534C28.3338 16.2534 28.1736 16.4137 28.1736 16.6114C28.1736 16.809 28.3338 16.9693 28.5315 16.9693Z" fill="#FFF5C5"></path>
    <path d="M16.9137 19.7141C17.4558 19.7141 17.8953 19.2746 17.8953 18.7325C17.8953 18.1904 17.4558 17.751 16.9137 17.751C16.3716 17.751 15.9321 18.1904 15.9321 18.7325C15.9321 19.2746 16.3716 19.7141 16.9137 19.7141Z" fill="#E21C59"></path>
    <path d="M16.9136 19.0904C17.1113 19.0904 17.2715 18.9301 17.2715 18.7324C17.2715 18.5348 17.1113 18.3745 16.9136 18.3745C16.7159 18.3745 16.5557 18.5348 16.5557 18.7324C16.5557 18.9301 16.7159 19.0904 16.9136 19.0904Z" fill="#FFF5C5"></path>
    <path d="M24.6591 19.7141C25.2012 19.7141 25.6406 19.2746 25.6406 18.7325C25.6406 18.1904 25.2012 17.751 24.6591 17.751C24.1169 17.751 23.6775 18.1904 23.6775 18.7325C23.6775 19.2746 24.1169 19.7141 24.6591 19.7141Z" fill="#E21C59"></path>
    <path d="M24.659 19.0904C24.8566 19.0904 25.0169 18.9301 25.0169 18.7324C25.0169 18.5348 24.8566 18.3745 24.659 18.3745C24.4613 18.3745 24.301 18.5348 24.301 18.7324C24.301 18.9301 24.4613 19.0904 24.659 19.0904Z" fill="#FFF5C5"></path>
    <path d="M27.5624 21.7939C28.1045 21.7939 28.5439 21.3545 28.5439 20.8124C28.5439 20.2703 28.1045 19.8308 27.5624 19.8308C27.0203 19.8308 26.5808 20.2703 26.5808 20.8124C26.5808 21.3545 27.0203 21.7939 27.5624 21.7939Z" fill="#E21C59"></path>
    <path d="M27.5625 21.1705C27.7602 21.1705 27.9205 21.0102 27.9205 20.8125C27.9205 20.6148 27.7602 20.4546 27.5625 20.4546C27.3648 20.4546 27.2046 20.6148 27.2046 20.8125C27.2046 21.0102 27.3648 21.1705 27.5625 21.1705Z" fill="#FFF5C5"></path>
    <path d="M20.7862 21.3845C21.3284 21.3845 21.7678 20.9451 21.7678 20.4029C21.7678 19.8608 21.3284 19.4214 20.7862 19.4214C20.2441 19.4214 19.8047 19.8608 19.8047 20.4029C19.8047 20.9451 20.2441 21.3845 20.7862 21.3845Z" fill="#E21C59"></path>
    <path d="M20.7862 20.7608C20.9838 20.7608 21.1441 20.6005 21.1441 20.4029C21.1441 20.2052 20.9838 20.0449 20.7862 20.0449C20.5885 20.0449 20.4282 20.2052 20.4282 20.4029C20.4282 20.6005 20.5885 20.7608 20.7862 20.7608Z" fill="#FFF5C5"></path>
    <path d="M24.6049 23.5056C25.147 23.5056 25.5864 23.0661 25.5864 22.524C25.5864 21.9819 25.147 21.5425 24.6049 21.5425C24.0628 21.5425 23.6233 21.9819 23.6233 22.524C23.6233 23.0661 24.0628 23.5056 24.6049 23.5056Z" fill="#E21C59"></path>
    <path d="M24.6048 22.8819C24.8024 22.8819 24.9627 22.7216 24.9627 22.524C24.9627 22.3263 24.8024 22.166 24.6048 22.166C24.4071 22.166 24.2468 22.3263 24.2468 22.524C24.2468 22.7216 24.4071 22.8819 24.6048 22.8819Z" fill="#FFF5C5"></path>
    <path d="M21.3321 21.929C21.3321 26.5213 18.4175 30.4325 14.3366 31.9144C11.3697 31.608 8.64319 30.4914 6.38294 28.7882C6.0775 28.5579 5.78039 28.3168 5.49219 28.0652C4.47414 27.1785 3.5719 26.167 2.80682 25.0546C2.13507 24.078 1.57411 23.0297 1.13432 21.929C0.815962 21.1313 0.56284 20.309 0.377441 19.4703C0.425112 19.2703 0.478467 19.0717 0.537441 18.8747C1.84882 14.4979 5.90819 11.3083 10.7115 11.3083C16.5772 11.3083 21.3321 16.0633 21.3321 21.929Z" fill="#F18DD5"></path>
    <path d="M4.58575 18.8753C4.41075 19.8425 4.31669 20.8672 4.31669 21.929C4.31669 23.0771 4.42638 24.1827 4.6295 25.2178C4.83063 26.2445 5.12319 27.2025 5.49219 28.0652C4.47414 27.1785 3.5719 26.167 2.80682 25.0546C2.13507 24.078 1.57411 23.0297 1.13432 21.929C0.815962 21.1313 0.56284 20.309 0.377441 19.4703C0.425129 19.2698 0.478691 19.0713 0.537441 18.8753C1.84882 14.4985 5.90819 11.3083 10.7115 11.3083C7.81969 11.3083 5.37532 14.4985 4.58575 18.8753Z" fill="#E25FBB"></path>
    <path d="M21.8446 25.5627L21.5919 27.7994L21.5834 27.8765L21.5168 28.4701L21.217 31.1301C19.5818 31.6936 17.8264 31.9999 15.9998 31.9999C15.4381 31.9999 14.883 31.9712 14.3364 31.9144C11.3695 31.6081 8.64302 30.4914 6.38277 28.7882C6.07732 28.5579 5.78022 28.3168 5.49202 28.0653C4.47396 27.1785 3.57173 26.167 2.80664 25.0546L10.3985 23.8589L21.8446 25.5627Z" fill="#FFD255"></path>
    <path d="M10.7112 23.9052L10.4848 23.8717L10.5315 23.8586L10.7112 23.9052ZM21.8446 25.5627L21.5919 27.7995L21.5834 27.8765L21.5168 28.4701H7.73464C7.24745 28.4701 6.78902 28.5845 6.38283 28.7882C4.99729 27.7446 3.78964 26.4838 2.80664 25.0546L10.3985 23.8589L21.8446 25.5627Z" fill="#F2973D"></path>
    <path d="M23.2548 24.3064C23.2548 24.9999 22.6925 25.5622 21.999 25.5622H3.17053C3.04588 25.3955 2.9246 25.2263 2.80678 25.0548C2.13503 24.0782 1.57407 23.0299 1.13428 21.9292H20.8777C21.534 21.9292 22.1283 22.1956 22.5587 22.6254C22.989 23.0558 23.2548 23.65 23.2548 24.3064Z" fill="#FFD255"></path>
    <path d="M24.2096 29.7358C23.8023 29.9801 23.3842 30.2059 22.9564 30.4124C21.8326 30.9564 20.6484 31.3656 19.4285 31.6316C18.5462 30.5697 18.6037 28.9906 19.5996 27.9954C20.0039 27.5896 20.5272 27.3236 21.0932 27.2359C21.9167 27.1072 22.7886 27.3606 23.4233 27.9954C23.8893 28.4599 24.169 29.079 24.2096 29.7358Z" fill="#72DAFE"></path>
    <path d="M21.0645 31.1816C20.5276 31.3606 19.9815 31.5108 19.4286 31.6316H19.428C18.5463 30.5691 18.6038 28.9906 19.5997 27.9953C19.7695 27.8252 19.9612 27.6785 20.1698 27.5591C19.5788 28.5922 19.7238 29.931 20.6061 30.8133C20.7449 30.9525 20.8986 31.0761 21.0645 31.1816Z" fill="#4BC2E2"></path>
    <path d="M22.473 29.6099C22.8398 29.6099 23.1372 29.3125 23.1372 28.9457C23.1372 28.5789 22.8398 28.2815 22.473 28.2815C22.1062 28.2815 21.8088 28.5789 21.8088 28.9457C21.8088 29.3125 22.1062 29.6099 22.473 29.6099Z" fill="#EF84D1"></path>
    <path d="M23.1941 25.8632C24.6876 25.8632 25.8984 24.6525 25.8984 23.1589C25.8984 21.6654 24.6876 20.4546 23.1941 20.4546C21.7005 20.4546 20.4897 21.6654 20.4897 23.1589C20.4897 24.6525 21.7005 25.8632 23.1941 25.8632Z" fill="#72DAFE"></path>
    <path d="M22.2882 24.0643C21.4064 23.1825 21.2615 21.8434 21.8524 20.8105C21.6437 20.9299 21.4518 21.0764 21.2818 21.2464C20.2257 22.3024 20.2257 24.0146 21.2818 25.0707C22.3379 26.1267 24.05 26.1267 25.1061 25.0707C25.2761 24.9007 25.4226 24.7088 25.5419 24.5001C24.5091 25.091 23.17 24.9461 22.2882 24.0643Z" fill="#4BC2E2"></path>
    <path d="M24.1554 22.8611C24.5222 22.8611 24.8196 22.5637 24.8196 22.1969C24.8196 21.8301 24.5222 21.5327 24.1554 21.5327C23.7886 21.5327 23.4912 21.8301 23.4912 22.1969C23.4912 22.5637 23.7886 22.8611 24.1554 22.8611Z" fill="#9BE5F9"></path>
    <path d="M29.5112 24.574C28.842 25.6252 28.0533 26.5954 27.1608 27.4651C27.1622 27.5049 27.1635 27.5441 27.1635 27.5833C27.123 27.5828 27.0825 27.5813 27.042 27.5787C26.4014 27.5435 25.7705 27.2809 25.2814 26.7912C24.676 26.1858 24.4174 25.3656 24.5056 24.576C24.5715 23.9882 24.8302 23.4181 25.2814 22.9669C25.6591 22.5873 26.1417 22.3294 26.6672 22.2263C27.5221 22.0572 28.4429 22.3047 29.1051 22.9669C29.4266 23.2876 29.662 23.6843 29.7895 24.1202C29.6993 24.273 29.6065 24.4243 29.5112 24.574Z" fill="#72DAFE"></path>
    <path d="M28.0112 26.5699C27.7392 26.8791 27.4556 27.1777 27.1609 27.4653C27.1217 27.5031 27.0819 27.541 27.042 27.5789C26.3778 27.5429 25.7504 27.2624 25.2807 26.7913C24.2247 25.7353 24.2247 24.023 25.2813 22.967C25.4511 22.7969 25.6428 22.6501 25.8514 22.5308C25.2604 23.5639 25.4054 24.9027 26.2877 25.785C26.7481 26.2467 27.3606 26.5257 28.0112 26.5699Z" fill="#4BC2E2"></path>
    <path d="M28.1547 24.5813C28.5215 24.5813 28.8189 24.2839 28.8189 23.9171C28.8189 23.5503 28.5215 23.2529 28.1547 23.2529C27.7878 23.2529 27.4905 23.5503 27.4905 23.9171C27.4905 24.2839 27.7878 24.5813 28.1547 24.5813Z" fill="#9BE5F9"></path>
    <path d="M27.1634 27.5834C27.1229 27.5829 27.0824 27.5813 27.042 27.5788C26.1807 28.4005 25.2307 29.124 24.2096 29.7359C23.8023 29.9802 23.3842 30.206 22.9564 30.4124C22.5953 30.2642 22.2576 30.0428 21.9644 29.7502C21.278 29.0639 20.9874 28.1307 21.0932 27.2359C21.1716 26.5809 21.4615 25.9461 21.9644 25.4433C22.658 24.7497 23.6023 24.4611 24.5055 24.5761C25.1742 24.6605 25.7956 24.9657 26.2713 25.4433C26.8323 26.0049 27.1288 26.7305 27.1608 27.4652C27.1621 27.505 27.1634 27.5442 27.1634 27.5834Z" fill="#72DAFE"></path>
    <path d="M24.6655 29.4524C24.5151 29.5492 24.3631 29.6437 24.2097 29.7358C23.8024 29.9802 23.3842 30.2059 22.9564 30.4124C22.5953 30.2641 22.2577 30.0428 21.9644 29.7502C20.7752 28.561 20.7752 26.6325 21.9644 25.4433C22.156 25.2519 22.3721 25.0867 22.6071 24.9521C21.9416 26.1153 22.1049 27.6238 23.0982 28.6165C23.5253 29.0455 24.0712 29.3367 24.6655 29.4524Z" fill="#4BC2E2"></path>
    <path d="M25.2009 27.2616C25.614 27.2616 25.9489 26.9267 25.9489 26.5136C25.9489 26.1005 25.614 25.7656 25.2009 25.7656C24.7878 25.7656 24.4529 26.1005 24.4529 26.5136C24.4529 26.9267 24.7878 27.2616 25.2009 27.2616Z" fill="#9BE5F9"></path>
    <path d="M4.37511 2.30322H5.74786V3.67647C5.74786 6.01985 3.84755 7.92022 1.50411 7.92022H0.130859V6.54741C0.130859 4.20354 2.03117 2.30322 4.37511 2.30322Z" fill="#63D38E"></path>
    <path d="M5.74785 2.30322V3.67647C5.74785 6.01985 3.84754 7.92022 1.5041 7.92022H0.131348L5.74785 2.30322Z" fill="#50B566"></path>
    <path d="M9.1312 6.10604C9.1312 6.10604 7.3467 1.02741 3.75488 0.32666" stroke="#913E21" stroke-width="10" stroke-miterlimit="10" stroke-linecap="round"></path>
  </g>
  <defs>
    <clipPath id="clip0_456_7195">
      <rect width="32" height="32" fill="white"></rect>
    </clipPath>
  </defs>
</svg>
